<svg width="371" height="373" viewBox="0 0 371 373" fill="none" xmlns="http://www.w3.org/2000/svg">
<path d="M116.184 166.214C116.584 163.085 116.237 159.949 116.097 156.825C115.686 147.86 116.59 139.097 119.801 130.676C121.713 125.657 124.889 121.334 127.828 116.894C130.053 113.533 132.273 110.171 134.411 106.758C135.709 104.689 136.393 102.382 136.561 99.9308C137.182 90.7449 137.825 81.559 138.903 72.4078C139.21 69.7767 139.465 67.1397 139.737 64.5027C139.419 63.4653 140.021 62.4859 139.94 61.4601C140.3 58.9796 140.607 56.4875 141.354 54.0766C141.777 52.7089 141.679 51.3933 140.85 50.1994C139.14 47.7363 139.256 45.3196 141.053 42.9782C141.777 42.0335 141.922 41.0946 141.43 40.0167C141.227 39.582 141.122 39.0952 141.099 38.6142C140.873 33.4214 141.864 32.2912 146.964 31.3813C149.636 30.9061 152.348 31.0916 155.049 31.0452C161.755 30.9235 168.454 31.1843 175.154 31.3582C179.309 31.4625 181.824 34.4182 181.343 38.5388C181.28 39.0662 181.181 39.5878 181.257 40.121C181.268 40.1673 181.297 40.2311 181.28 40.2543C180.26 41.4134 180.758 42.4566 181.523 43.4766C181.459 43.8301 181.593 44.1315 181.743 44.4444C182.734 46.4671 182.543 48.3216 181.083 50.0835C179.813 51.6135 179.993 53.4159 180.723 55.0213C182.427 58.7652 182.584 62.7757 182.926 66.7398C183.743 76.1517 184.288 85.5927 185.221 94.993C185.887 101.664 188.524 107.743 192.03 113.405C194.644 117.625 197.698 121.577 200.104 125.924C203.059 131.279 205.007 136.993 205.534 143.142C205.969 148.184 206.722 153.203 206.351 158.286C206.258 159.538 206.137 160.784 206.027 162.03C205.708 162.279 205.395 162.134 205.07 162.041C193.624 158.593 183.627 160.761 175.484 169.807C173.606 171.894 172.163 174.299 171.201 176.971C170.697 178.373 170.291 178.501 169.086 177.712C166.263 175.875 163.429 176.107 160.607 177.649C158.886 178.588 158.677 178.46 157.889 176.658C154.145 168.069 147.868 162.488 138.474 160.905C133.455 160.059 128.471 160.401 123.684 162.314C121.563 163.16 119.673 164.412 117.824 165.727C117.343 166.069 116.915 166.689 116.184 166.208V166.214Z" fill="#F04E23"/>
<path d="M116.183 166.214C117.499 165.803 118.386 164.736 119.498 164.018C125.56 160.123 132.208 159.422 139.087 160.616C145.926 161.798 151.327 165.426 155.315 171.14C156.694 173.122 158.033 175.104 158.664 177.469C158.867 178.234 159.192 178.165 159.789 177.747C163.133 175.412 166.152 175.371 169.514 177.614C170.858 178.506 170.702 177.162 170.91 176.658C174.075 168.973 179.737 163.861 187.486 161.259C192.794 159.48 198.317 159.816 203.742 161.126C204.53 161.317 205.26 161.717 206.02 162.024C207.926 162.806 209.706 163.815 211.485 165.096C211.798 164.412 211.636 163.751 211.636 163.125C211.618 158.778 210.436 154.548 210.361 150.201C210.343 149.332 210.297 148.462 210.523 147.611C211.647 143.409 216.197 142.198 219.651 145.06C223.325 148.103 224.936 152.172 225.724 156.669C225.91 157.712 226.072 158.089 227.312 157.944C229.544 157.677 231.607 158.466 233.299 159.955C234.418 160.94 235.444 161.804 237.095 161.3C238.034 161.01 239.28 161.81 239.987 161.033C240.578 160.384 240.631 159.26 240.955 158.355C241.459 156.953 241.9 155.498 242.833 154.322C245.168 151.389 249.59 151.847 251.914 155.255C254.488 159.022 254.795 163.183 254.117 167.582C253.404 172.207 251.486 176.275 248.895 180.083C248.153 181.172 248.118 182.279 248.495 183.502C249.903 188.098 249.289 192.485 246.681 196.473C244.421 199.927 241.245 202.17 236.979 202.448C235.751 202.529 234.974 202.906 234.516 204.128C233.769 206.111 232.61 207.768 230.372 208.353C229.648 208.545 229.718 209.286 229.671 209.808C229.26 214.108 227.735 218.044 225.58 221.718C221.598 228.504 216.237 233.79 208.628 236.415C207.544 236.792 206.396 236.977 205.272 237.25C204.148 236.554 204.484 235.523 204.658 234.538C205.208 233.686 206.17 233.552 207.011 233.257C217.518 229.53 223.8 222.06 226.466 211.379C226.837 209.895 226.733 209.773 225.191 209.507C223.198 209.165 221.187 208.91 219.216 208.446C218.179 208.203 217.547 208.423 217.315 209.547C215.918 216.409 211.294 220.518 205.371 223.503C204.837 223.769 204.304 224.227 203.626 223.839C203.151 222.657 202.235 221.486 203.522 220.252C206.709 218.785 209.665 217.012 211.688 214.016C212.719 212.491 213.606 210.892 214.075 209.095C214.197 208.637 214.4 208.11 213.931 207.751C213.421 207.357 212.887 207.629 212.47 207.954C211.247 208.904 209.943 209.704 208.604 210.48C206.75 211.558 204.779 212.294 202.739 212.903C194.834 214.908 187.416 213.859 180.583 209.304C174.504 205.247 170.841 199.55 169.195 192.474C168.505 189.518 168.528 186.533 168.598 183.543C168.639 181.879 168.175 180.604 166.546 179.938C164.79 179.214 162.814 179.573 161.58 180.813C160.913 181.485 160.757 182.297 160.733 183.195C160.675 185.606 160.745 188.005 160.536 190.422C160.102 195.389 158.033 199.654 155.019 203.433C149.403 210.469 142.002 214.033 132.961 213.842C127.995 213.732 123.37 212.271 119.18 209.541C116.635 207.925 114.41 205.966 112.584 203.555C111.744 202.448 111.732 202.465 111.176 203.7C110.492 205.212 109.623 206.615 108.185 207.513C107.096 208.191 107.055 208.945 107.496 210.063C109.287 214.636 112.689 217.476 117.111 219.261C117.864 219.568 118.693 219.736 119.191 220.478C119.759 221.532 119.568 222.547 119.046 223.549C118.728 223.874 118.339 223.827 117.968 223.712C112.3 222.019 107.519 219.22 105.143 213.424C104.83 212.665 104.546 211.894 104.366 211.095C104.146 210.121 103.636 209.733 102.604 209.895C100.559 210.22 98.5069 210.498 96.5017 211.048C95.105 211.437 95.0586 211.506 95.4585 212.955C95.7714 214.074 96.2177 215.146 96.7335 216.177C99.5733 221.857 103.062 226.998 108.806 230.185C110.973 231.385 113.367 231.988 115.685 232.793C116.264 232.996 116.942 232.973 117.36 233.541C117.707 234.769 117.765 235.928 116.618 236.815C109.988 235.65 104.714 232.19 100.234 227.293C96.6118 223.335 94.3921 218.623 92.497 213.703C92.2014 212.926 89.4949 209.24 88.869 208.724C88.0402 208.052 87.2288 207.322 86.8463 206.308C86.3131 204.888 85.212 204.627 83.8906 204.494C81.3232 204.233 78.9181 203.468 76.8317 201.862C71.9055 198.072 70.2653 192.978 71.2506 187.032C71.5693 185.102 71.3491 183.618 70.1436 182.105C66.8344 177.95 64.8871 173.198 64.1858 167.918C63.6642 163.989 64.6089 160.477 66.8402 157.243C68.434 154.93 73.4529 153.951 75.5161 157.335C76.5941 159.109 77.6778 160.865 78.0951 162.928C78.2516 163.687 78.4834 163.937 79.3469 163.693C80.5524 163.351 81.839 163.716 83.0445 163.687C84.2847 163.653 84.2963 161.734 85.4438 161.091C87.1013 160.164 88.811 159.3 90.7062 159.358C92.1029 159.399 92.1898 158.807 92.2999 157.706C92.723 153.493 94.1603 149.651 97.0175 146.463C99.1966 144.029 102.002 143.496 104.633 144.945C106.626 146.046 107.264 147.964 107.258 150.068C107.235 154.113 107.084 158.164 106.997 162.209C106.986 162.737 107.102 163.282 107.032 163.797C106.511 167.443 108.846 168.961 111.68 170.138C112.26 170.381 112.689 170.254 113.083 169.796C114.114 168.596 115.157 167.402 116.195 166.208L116.183 166.214Z" fill="#080909"/>
<path d="M119.222 209.188C123.742 212.011 128.668 213.645 133.994 213.454C144.525 213.065 152.32 208.133 157.443 198.884C160.08 194.126 160.561 189.025 160.236 183.78C160.068 181.039 161.367 180.1 163.134 179.376C165.082 178.576 167.365 179.283 168.57 180.912C169.405 182.03 169.121 183.334 169.063 184.551C168.918 187.559 169.133 190.515 169.863 193.436C172.865 205.473 184.357 214.074 196.748 213.471C198.806 213.372 200.84 212.903 202.886 212.607C203.436 213.071 203.344 213.743 203.442 214.346C203.767 216.404 203.714 218.473 203.697 220.542C202.834 221.017 203.361 221.718 203.442 222.315C203.506 222.825 203.709 223.323 203.854 223.828C204.613 225.01 204.161 226.354 204.346 227.612C204.677 229.884 204.972 232.167 204.937 234.468C204.792 235.43 204.787 236.381 205.297 237.256C206.021 243.816 205.54 250.244 203.315 256.503C201.721 260.983 199.495 262.501 194.749 262.35C193.323 262.304 191.88 261.951 190.454 262.356C189.527 262.721 188.519 262.611 187.562 262.837C182.596 263.069 177.635 262.791 172.679 262.553C171.63 262.49 170.587 262.576 169.55 262.739C164.473 263.092 159.373 262.605 154.296 263.11C153.305 262.93 152.331 262.478 151.288 262.831C147.162 262.976 143.035 262.866 138.909 262.895C136.504 262.913 136.504 262.907 136.492 265.26C136.492 266.025 136.515 266.796 136.475 267.561C136.446 268.129 136.475 268.731 135.913 269.108C135.229 268.911 135.333 268.308 135.293 267.821C135.217 266.917 135.264 266.013 135.264 265.103C135.264 263.693 134.601 262.864 133.276 262.617C130.986 262.194 128.674 262.426 126.373 262.356C123.255 262.263 120.543 261.359 119.019 258.398C118.051 256.514 117.396 254.492 116.921 252.423C115.837 247.694 116.104 242.947 116.706 238.189C116.764 237.725 117.002 237.256 116.637 236.815C117.228 235.778 117.332 234.659 117.17 233.506C116.944 232.619 117.28 231.785 117.419 230.939C117.726 229.032 118.126 227.143 118.254 225.207C118.294 224.627 118.445 224.065 118.816 223.59C119.152 222.512 119.361 221.434 118.798 220.356C118.601 216.971 118.723 213.581 118.769 210.191C118.769 209.808 118.891 209.432 119.233 209.188H119.222Z" fill="#F04E23"/>
<path d="M151.608 262.449C152.53 262.072 153.387 261.979 154.042 262.936C154.61 264.448 154.656 266.048 154.662 267.613C154.709 280.148 154.726 292.69 154.651 305.226C154.633 307.625 154.396 310.036 154.338 312.441C154.32 313.235 154.43 313.878 155.19 314.255C157.485 315.408 158.041 317.472 157.792 319.743C157.63 321.204 158.058 322.004 159.229 322.844C160.852 324.009 161.959 325.661 162.498 327.967C163.263 325.887 164.544 324.525 165.929 323.255C166.462 322.769 166.595 322.276 166.311 321.586C165.761 320.248 165.9 318.833 166.068 317.448C166.195 316.399 166.659 315.403 167.615 314.956C169.197 314.22 169.713 313.026 169.603 311.409C169.818 309.833 170.032 308.268 170.032 306.674C170.009 292.678 170.02 278.682 170.02 264.686C170.02 264.205 169.974 263.718 170.061 263.243C170.148 262.756 170.293 262.269 170.93 262.287C171.481 262.304 171.805 262.634 171.956 263.15C172.101 263.672 172.043 264.205 172.043 264.732C172.043 279.111 172.055 293.495 172.031 307.874C172.031 309.149 172.107 310.366 172.756 311.491C173.111 313.017 174.097 313.782 175.712 313.786C178.314 313.786 180.916 313.786 183.518 313.786C184.243 313.786 184.961 313.716 185.68 313.664C186.949 313.577 187.384 312.951 187.372 311.699C187.332 307.028 187.372 302.351 187.343 297.674C187.332 296.074 187.517 294.504 187.668 292.922C187.778 291.786 188.311 291.056 189.418 290.708C190.629 290.325 191.951 289.925 191.852 288.303C191.765 286.831 190.56 286.39 189.348 286.1C187.998 285.776 187.749 284.791 187.639 283.597C187.1 277.679 187.453 271.751 187.349 265.828C187.337 265.155 187.337 264.477 187.361 263.805C187.384 263.272 187.43 262.739 187.882 262.362C188.723 262.194 189.569 261.887 190.415 262.344C190.415 268.905 190.438 275.471 190.409 282.038C190.409 282.988 190.537 283.446 191.644 283.649C193.284 283.95 194.333 285.161 194.68 286.784C195.063 288.558 195.092 290.366 193.713 291.803C193.029 292.522 192.31 293.281 191.209 293.391C190.282 293.484 190.426 294.191 190.426 294.811C190.426 300.12 190.426 305.428 190.426 310.737C190.426 311.218 190.525 311.74 190.374 312.174C189.841 313.762 190.455 314.185 192.009 314.238C194.663 314.33 196.361 316.127 196.21 318.764C196.129 320.201 196.703 320.479 197.914 320.688C207.257 322.282 213.435 327.585 216.298 336.649C216.848 338.393 216.982 340.236 216.982 342.068C216.982 342.925 216.895 343.806 216.274 344.508C215.793 345.047 215.144 345.215 214.472 345.336C213.562 345.493 212.646 345.504 211.725 345.481C203.762 345.278 195.799 345.661 187.842 345.864C181.71 346.02 175.584 346.032 169.458 346.049C149.817 346.113 130.176 346.049 110.541 346.055C109.637 346.055 108.681 346.194 107.939 345.458C106.629 341.303 107.481 337.333 109.289 333.589C112.256 327.44 117.148 323.499 123.761 321.725C124.647 321.488 125.546 321.337 126.467 321.349C127.365 321.36 127.771 321.163 127.62 320.039C127.331 317.848 127.661 315.797 129.944 314.62C130.721 314.22 131.521 314.238 132.332 314.214C133.126 314.191 133.456 313.988 133.41 313.021C133.126 307.242 133.23 301.453 133.335 295.669C133.358 294.481 133.422 293.571 131.874 293.078C129.944 292.464 128.878 290.204 129.017 288.036C129.156 285.903 130.396 284.176 132.361 283.643C133.19 283.417 133.271 282.994 133.265 282.298C133.242 275.738 133.236 269.183 133.23 262.623C133.578 262.165 134.111 262.35 134.558 262.24C135.415 262.026 135.775 262.362 135.757 263.272C135.723 265.086 135.775 266.9 135.792 268.72C136.093 269.438 136.169 270.192 136.169 270.968C136.157 275.025 136.175 279.076 136.157 283.133C136.151 285.37 136.03 285.532 133.949 286.216C132.836 286.587 132.066 287.254 132.048 288.482C132.031 289.641 132.894 290.111 133.833 290.488C136.024 291.368 136.151 291.554 136.157 293.895C136.169 298.868 136.169 303.84 136.157 308.813C136.157 310.024 136.285 311.218 136.476 312.412C136.609 313.247 137.027 313.722 137.902 313.739C141.761 313.809 145.621 313.791 149.487 313.751C150.374 313.739 150.768 313.241 150.942 312.441C151.139 311.531 151.115 310.615 151.115 309.7C151.115 294.828 151.115 279.963 151.127 265.092C151.127 264.193 150.918 263.243 151.585 262.449H151.608Z" fill="#080909"/>
<path d="M107.962 345.458C108.634 345.51 109.301 345.603 109.973 345.603C126.003 345.609 142.028 345.487 158.053 345.655C167.024 345.748 175.99 345.528 184.955 345.435C194.506 345.336 204.052 345.076 213.603 344.861C214.507 344.838 215.399 344.629 216.298 344.508C215.84 349.405 213.771 353.218 209.123 355.363C207.541 356.093 205.866 356.238 204.191 356.278C194.165 356.527 184.132 356.603 174.112 356.974C168.571 357.182 163.292 353.27 162.434 348.408C162.411 348.275 162.318 348.153 162.214 347.939C161.234 350.657 160.017 353.108 157.618 354.789C155.097 356.556 152.245 357.101 149.267 357.107C139.855 357.13 130.443 357.136 121.037 357.107C116.852 357.095 113.143 355.907 110.471 352.436C108.895 350.384 108.333 347.95 107.968 345.458H107.962Z" fill="#F04E23"/>
<path d="M181.516 43.4766C181.192 43.21 180.838 42.9724 180.549 42.671C179.488 41.5873 179.557 41.2685 180.96 40.5962C181.273 39.895 182.003 39.7849 182.583 39.4777C184.229 38.6026 185.162 37.2928 185.081 35.415C184.994 33.4851 183.939 32.1174 182.16 31.4799C180.299 30.8134 179.557 29.6659 179.581 27.6722C179.621 23.6269 176.88 20.6828 172.904 20.3293C170.986 20.1554 169.624 19.3846 168.569 17.6807C166.378 14.1455 163.075 12.1112 158.914 12.3546C154.521 12.6096 151.009 14.7134 149.027 18.863C148.047 20.9088 147.3 21.2334 145.289 20.196C143.718 19.3846 142.147 18.7935 140.333 18.8688C137.441 18.9847 135.338 20.3235 134.144 22.9025C132.973 25.4351 133.315 27.8982 135.065 30.1063C135.575 30.7496 136.132 31.3524 136.589 32.0362C137.476 33.3576 137.36 34.169 136.137 35.1542C135.726 35.4904 135.262 35.7512 134.851 36.0873C133.054 37.5594 131.994 39.3792 132.446 41.7727C132.898 44.1489 134.37 45.7137 136.613 46.5656C137.575 46.9307 138.803 46.896 139.238 48.1014C139.783 49.5967 139.69 51.1441 139.418 52.6683C139.296 53.3406 138.658 53.6246 138.114 53.9375C137.221 54.4533 136.439 55.0792 135.998 56.0471C135.03 58.1972 136.097 60.4169 138.374 61.066C139.018 61.2457 139.742 61.1124 140.304 61.5818C140.484 62.6308 140.107 63.5639 139.742 64.5086C135.384 64.9027 132.48 61.605 132.121 58.4001C131.826 55.7573 132.846 53.6072 134.926 51.967C136.549 50.6862 136.52 50.3965 134.654 49.4634C128.592 46.4207 127.23 39.2401 131.808 34.198C132.573 33.3518 132.544 32.8013 131.959 31.8508C128.342 26.0031 130.44 18.6544 136.479 16.1681C139.331 14.9916 142.321 15.0727 145.184 16.2666C146.065 16.6317 146.465 16.6607 146.969 15.774C152.035 6.85469 165.845 6.74458 171.125 15.3973C171.641 16.2376 172.267 16.6665 173.293 16.794C178.277 17.4141 181.337 20.3177 182.728 25.0642C183.232 26.7971 183.956 28.0953 185.347 29.179C188.239 31.4335 189.08 34.4124 188.164 37.8086C187.277 41.1236 184.704 42.7232 181.516 43.4824V43.4766Z" fill="#090A0A"/>
<path d="M83.8133 91.6965C80.4461 91.6965 77.0731 91.6849 73.7059 91.6849C73.1263 91.6849 72.5873 91.6733 72.0542 91.3314C71.1501 90.7519 71.0689 90.2245 71.9498 89.5812C72.4888 89.2624 73.0278 89.0132 73.7001 89.0306C76.8181 89.1233 79.9477 88.8799 83.0599 89.1697C84.0509 89.2624 84.3059 88.8046 84.2943 87.9063C84.2653 85.2635 84.2653 82.6207 84.2943 79.978C84.3059 78.929 84.2943 77.8684 84.7116 76.8658C84.9956 76.3442 85.465 75.9733 86.0098 76.2109C86.6357 76.4833 86.7632 77.1845 86.769 77.822C86.798 80.3315 86.8038 82.841 86.8096 85.3504C86.8096 87.8271 88.0672 89.0634 90.5824 89.0596C92.7036 89.0596 94.8306 89.048 96.9517 89.0538C97.3864 89.0538 97.8384 89.0132 98.2499 89.1175C99.0265 89.3204 99.8031 89.7203 99.7394 90.6244C99.6814 91.5111 98.8585 91.6965 98.105 91.6965C94.8248 91.6907 91.5387 91.6965 88.2584 91.6038C87.1399 91.5748 86.7574 91.8704 86.7806 93.0469C86.8559 96.2808 86.7806 99.5147 86.7806 102.749C86.7806 103.392 86.798 104.012 86.1836 104.424C84.729 104.308 84.3117 103.919 84.2943 102.505C84.2595 99.422 84.2885 96.3445 84.2827 93.2613C84.2827 92.6934 84.3986 92.0848 83.8133 91.6849V91.6965Z" fill="#F04E23"/>
<path d="M236.597 37.1689C237.93 36.3807 238.486 36.6995 238.521 38.4092C238.579 41.6373 238.62 44.8654 238.55 48.0935C238.521 49.3105 238.892 49.6235 240.08 49.5945C243.256 49.5192 246.438 49.6177 249.62 49.5771C250.564 49.5655 251.347 49.7858 251.352 50.7884C251.352 51.762 250.547 52.1561 249.637 52.1619C246.6 52.1851 243.569 52.1793 240.532 52.1851C239.234 52.1851 238.585 52.8362 238.585 54.1382C238.585 56.9317 238.585 59.7251 238.585 62.5243C238.585 63.3009 238.573 64.0717 238.086 64.7324C236.655 64.8367 236.249 64.5412 236.191 63.1329C236.128 61.4985 236.122 59.8526 236.191 58.2183C236.255 56.5839 235.931 54.9554 236.162 53.321C236.296 52.3532 235.658 52.2315 234.893 52.2315C232.048 52.2431 229.202 52.1851 226.362 52.2605C225.128 52.2952 224.09 52.0344 223.244 51.1303C223.401 49.977 224.142 49.5713 225.215 49.5771C228.518 49.5771 231.827 49.5771 235.131 49.5829C236.087 49.4844 236.197 48.8469 236.191 48.0413C236.162 45.3116 236.191 42.5761 236.174 39.8465C236.174 38.925 236.261 38.0325 236.614 37.1805L236.597 37.1689Z" fill="#F04E23"/>
<path d="M223.227 51.1189C225.319 52.4345 227.649 51.8144 229.886 51.9013C231.613 51.9708 233.357 51.9998 235.079 51.8781C236.51 51.7738 236.574 52.4519 236.551 53.5936C236.493 56.9492 236.551 60.3106 236.562 63.6662C236.562 64.7326 237.322 64.7268 238.069 64.7326C236.69 65.231 235.768 64.5819 235.739 62.936C235.681 60.0556 235.641 57.1636 235.745 54.2833C235.797 52.846 235.426 52.3707 233.925 52.4345C231.045 52.562 228.159 52.4577 225.273 52.4577C224.293 52.4577 223.488 52.2027 223.215 51.1189H223.227Z" fill="#E0A47F"/>
<path d="M84.7093 76.8716C84.715 80.7256 84.6861 84.5738 84.7556 88.4279C84.7788 89.6217 84.1239 89.6681 83.2951 89.5638C80.1772 89.1813 77.0476 89.3841 73.9238 89.3551C73.2631 89.3493 72.6082 89.5058 71.9475 89.587C72.3126 88.8799 72.9327 88.7872 73.6514 88.7872C76.5839 88.7872 79.5165 88.7002 82.449 88.7466C83.5733 88.764 83.9211 88.4279 83.9269 87.2745C83.9384 84.2029 83.6719 81.1255 84.0717 78.0539C84.1355 77.5555 84.1645 77.0918 84.7035 76.8716H84.7093Z" fill="#E1A783"/>
<path d="M83.812 91.6967C84.8726 91.4881 84.7219 92.2531 84.7219 92.8616C84.7335 96.0897 84.7741 99.3178 84.7219 102.546C84.7045 103.664 85.0638 104.296 86.1882 104.435C84.8552 104.829 83.9163 104.163 83.9047 102.743C83.8816 99.6829 83.9047 96.6229 83.8931 93.5629C83.8931 92.9427 83.841 92.3226 83.812 91.7025V91.6967Z" fill="#E2AB87"/>
<path d="M236.598 37.1689C236.586 40.8549 236.546 44.5351 236.598 48.221C236.615 49.3627 236.273 49.8438 235.12 49.5714C235.821 49.299 235.729 48.6904 235.729 48.1225C235.729 45.3001 235.729 42.4718 235.729 39.6494C235.729 38.7164 235.85 37.8354 236.604 37.1689H236.598Z" fill="#DE9D78"/>
<path d="M140.299 61.5759C138.358 61.7208 136.637 61.4021 135.646 59.4548C134.602 57.4089 135.367 54.8589 137.564 53.8447C138.885 53.2304 139.378 52.4306 139.175 51.0513C139.111 50.6282 139.146 50.1819 139.163 49.7473C139.239 48.2404 138.665 47.4175 137.071 47.0465C134.388 46.4264 132.551 44.7052 132.018 41.9233C131.473 39.0603 132.893 36.9913 135.072 35.3802C137.28 33.74 137.373 33.5372 135.564 31.3755C134.307 29.8744 133.177 28.3792 133.072 26.3102C132.916 23.1226 134.347 20.7986 137.002 19.2686C139.488 17.8371 142.067 18.0747 144.565 19.3903C144.947 19.5932 145.33 19.7902 145.712 19.993C147.196 20.7696 147.851 20.5552 148.523 19.0368C150.221 15.1828 153.183 12.8877 157.28 12.1053C161.818 11.236 166.623 13.4209 168.947 17.4952C169.839 19.0542 170.998 19.8829 172.731 19.8597C176.823 19.796 180.149 23.8123 180.051 27.7706C179.993 30.199 180.039 30.17 182.317 31.0741C184.148 31.7985 185.348 33.1199 185.493 35.1425C185.638 37.1826 184.844 38.8169 182.949 39.7674C182.305 40.0919 181.621 40.3295 180.949 40.6019C180.422 40.3121 180.619 39.8775 180.712 39.4602C181.714 34.9107 179.408 31.8797 174.748 31.7C172.824 31.6247 170.894 31.6363 168.97 31.6305C161.65 31.5957 154.325 31.4044 147.005 31.7522C145.486 31.8275 144.148 32.523 142.803 33.1837C142.27 33.4503 142.061 33.9197 141.916 34.4355C141.308 36.5682 141.082 38.6894 142.166 40.7526C142.548 41.4828 142.409 42.0624 141.858 42.7057C139.529 45.4296 139.413 46.9828 141.261 49.9733C141.922 51.0397 142.351 52.164 141.974 53.3984C141.146 56.076 140.804 58.8462 140.288 61.5817L140.299 61.5759Z" fill="white"/>
<path d="M161.732 80.8461C156.852 80.8809 152.528 80.7244 148.234 79.9826C147.075 79.7855 146.02 79.3624 144.988 78.835C144.003 78.3366 142.971 77.6701 143.145 76.5052C143.319 75.3403 144.293 74.5464 145.481 74.1928C149.474 72.9932 153.548 72.4252 157.721 72.4194C164.079 72.4078 170.454 72.1586 176.661 73.9668C177.623 74.245 178.62 74.4304 179.153 75.4794C179.79 76.7313 179.443 77.9599 178.231 78.6554C176.035 79.9246 173.601 80.2144 171.155 80.4404C167.846 80.7476 164.525 80.9446 161.732 80.8403V80.8461Z" fill="#0B0A09"/>
<path d="M175.675 86.543C175.675 85.7954 175.704 85.21 175.669 84.6363C175.611 83.6916 175.976 83.1353 176.961 83.1353C177.941 83.1353 178.503 83.6453 178.561 84.6247C178.677 86.6473 178.781 88.6642 178.857 90.6868C179.112 97.711 180.074 104.55 183.365 110.931C185.405 114.877 187.805 118.569 190.43 122.122C193.038 125.651 195.553 129.227 196.875 133.469C197.205 134.518 197.449 135.608 197.593 136.697C197.692 137.422 197.53 138.233 196.62 138.39C195.727 138.54 194.956 138.233 194.777 137.213C193.67 130.769 189.37 126.092 185.875 120.945C181.482 114.477 177.645 107.778 176.764 99.7394C176.278 95.2827 175.924 90.8317 175.669 86.5372L175.675 86.543Z" fill="#0A0A09"/>
<path d="M160.827 48.8548C164.357 48.8548 168.553 49.0866 172.737 48.6287C173.653 48.5302 174.493 48.6519 174.557 49.9038C174.621 51.0629 174.053 51.6019 172.98 51.7178C172.262 51.7931 171.543 51.8627 170.819 51.8627C164.31 51.8742 157.808 51.8627 151.299 51.8684C150.279 51.8684 149.282 51.7757 148.32 51.399C147.579 51.1092 147.051 50.6977 147.179 49.811C147.324 48.7968 148.071 48.6345 148.888 48.6925C152.644 48.9475 156.411 48.762 160.827 48.8548Z" fill="#0E0B0A"/>
<path d="M124.757 136.906C124.896 133.087 126.56 129.83 128.634 126.77C130.634 123.82 132.772 120.957 134.859 118.065C135.085 117.758 135.323 117.428 135.63 117.213C136.111 116.883 136.661 116.663 137.252 117.016C137.873 117.387 137.82 117.996 137.728 118.563C137.618 119.242 137.229 119.81 136.841 120.366C134.882 123.165 132.859 125.918 130.976 128.769C129.51 130.983 128.298 133.336 127.864 136.02C127.777 136.57 127.435 137.08 127.197 137.608C126.913 138.228 126.467 138.691 125.737 138.471C125.012 138.251 124.688 137.666 124.763 136.906H124.757Z" fill="#0B0A0A"/>
<path d="M146.728 86.2417C146.108 91.3997 146.224 96.633 145.28 101.762C145.106 102.718 144.828 103.64 144.254 104.434C143.97 104.828 143.593 105.181 143.043 105.042C142.475 104.897 142.121 104.486 142.075 103.912C142.034 103.391 142.011 102.84 142.121 102.33C142.863 98.9744 142.985 95.5435 143.205 92.1357C143.361 89.6842 143.582 87.2385 143.808 84.7928C143.9 83.8133 144.202 83.0541 145.349 83.1411C146.433 83.2222 146.821 83.9061 146.74 84.9377C146.705 85.3665 146.74 85.807 146.74 86.2417H146.728Z" fill="#0B0A09"/>
<path d="M182.84 144.487C182.852 143.444 183.779 142.858 184.904 143.177C186.074 143.507 186.851 144.411 187.68 145.188C189.268 146.677 190.583 148.387 191.429 150.421C191.621 150.879 191.667 151.279 191.232 151.569C190.827 151.841 190.421 151.754 190.044 151.447C187.952 149.749 185.854 148.068 183.768 146.365C183.182 145.889 182.835 145.263 182.84 144.481V144.487Z" fill="#0C0A09"/>
<path d="M142.448 145.397C142.448 146.295 142.129 146.933 141.532 147.39C139.788 148.735 138.026 150.056 136.253 151.36C135.731 151.743 135.134 152.015 134.566 151.459C134.033 150.937 134.358 150.375 134.647 149.882C135.859 147.796 137.302 145.901 139.266 144.458C139.991 143.925 140.831 143.67 141.7 144.064C142.292 144.33 142.419 144.922 142.442 145.391L142.448 145.397Z" fill="#0D0B09"/>
<path d="M107.527 180.483C107.782 181.613 107.44 182.54 107.307 183.462C106.849 186.608 107.156 189.709 107.759 192.798C108.17 194.902 108.194 194.879 106.252 195.87C104.172 196.93 101.911 197.046 99.6569 197.214C98.9904 197.266 97.9878 197.191 97.9298 197.881C97.8545 198.744 98.9034 198.814 99.5757 198.901C101.633 199.162 103.702 199.312 105.771 198.97C106.855 198.791 107.718 199.023 108.362 200.06C108.999 201.092 108.762 201.961 108.211 202.882C107.168 204.638 105.557 205.641 103.685 206.244C100.265 207.351 96.7533 207.89 93.1543 207.646C91.2997 207.519 89.7349 206.794 88.6686 205.137C88.1875 204.389 88.2803 204.157 89.1148 203.839C91.0795 203.097 92.7776 201.909 94.1395 200.298C94.4873 199.886 95.0552 199.295 94.6032 198.791C94.1685 198.304 93.5078 198.715 93.0268 199.034C90.9056 200.437 88.6686 201.486 86.078 201.607C77.8135 201.99 71.8442 194.601 74.0407 186.603C74.7535 184.006 73.4843 182.105 72.1687 180.21C69.8737 176.895 67.8163 173.482 67.1672 169.425C66.7615 166.886 66.6282 164.342 67.428 161.838C67.8337 160.563 68.6103 159.52 69.6187 158.668C71.0038 157.498 72.3831 157.706 73.3916 159.213C73.8436 159.891 74.2783 160.592 74.6608 161.317C75.8662 163.589 76.2198 165.669 74.5796 168.121C71.6761 172.467 72.3889 181.532 78.028 185.27C81.1112 187.316 83.8061 187.316 86.6865 184.98C87.266 184.511 87.8572 184.395 88.57 184.563C90.2044 184.951 91.7634 184.719 93.0847 183.659C94.0874 182.853 94.8698 183.618 95.6 183.966C96.4288 184.36 95.6985 185.107 95.5189 185.588C94.6611 187.907 94.551 190.184 95.542 192.485C95.7507 192.966 95.8086 193.586 96.5505 193.465C97.2401 193.354 97.0779 192.746 97.13 192.306C97.2575 191.204 97.2575 190.086 97.4546 189.002C97.9472 186.33 99.1642 184.308 102.039 183.485C104.009 182.923 105.852 181.943 107.521 180.471L107.527 180.483Z" fill="#F04E23"/>
<path d="M222.418 187.895C223.026 188.956 223.096 190.04 223.154 191.129C223.183 191.657 223.096 192.259 223.867 192.317C224.527 192.364 224.609 191.842 224.73 191.367C225.368 188.967 225.403 186.62 224.29 184.319C224.093 183.914 223.339 183.41 224.006 182.975C224.719 182.511 225.524 181.619 226.463 182.21C228.103 183.247 229.738 183.479 231.534 182.778C232.102 182.558 232.502 182.865 232.948 183.23C235.574 185.386 239.086 185.305 241.653 183.073C247.333 178.147 247.912 169.622 242.917 163.908C242.499 163.427 242.227 162.998 242.43 162.366C242.934 160.761 243.305 159.109 244.047 157.579C245.333 154.936 247.565 154.629 249.512 156.866C250.683 158.211 251.338 159.804 251.517 161.578C252.056 166.886 251.071 171.836 248.005 176.287C247.547 176.953 247.194 177.701 246.776 178.396C245.496 180.523 245.316 182.575 246.122 185.084C247.576 189.617 246.168 193.755 242.656 196.861C238.895 200.188 234.484 200.709 229.836 198.698C228.996 198.333 228.196 197.887 227.373 197.487C226.979 197.296 226.492 197.075 226.179 197.469C225.866 197.864 226.156 198.298 226.463 198.629C227.848 200.124 229.32 201.486 231.36 202.054C231.882 202.199 232.641 202.123 232.717 202.882C232.78 203.532 232.415 204.117 231.911 204.511C230.601 205.531 229.17 206.284 227.472 206.453C223.594 206.829 219.955 205.409 216.182 205.015C215.666 204.963 215.533 204.633 215.886 204.204C217.266 202.535 218.361 200.674 219.566 198.884C220.105 198.084 221.195 197.91 222.093 197.556C222.441 197.417 222.928 197.33 222.812 196.826C222.731 196.467 222.319 196.374 221.977 196.415C220.587 196.571 220.784 195.835 221.068 194.931C221.78 192.677 222.314 190.382 222.429 187.889L222.418 187.895Z" fill="#F04E23"/>
<path d="M110.941 193.413C114.418 194.149 117.693 194.328 120.944 193.859C126.438 193.065 131.156 190.573 135.103 186.707C139.351 182.546 143.802 178.692 149.29 176.217C150.032 175.881 150.756 175.475 151.533 175.261C154.396 174.484 154.083 174.484 155.3 176.988C155.903 178.222 156.222 179.596 156.72 180.883C156.998 181.595 156.801 181.972 156.082 182.105C150.519 183.131 146.016 186.07 142.295 190.155C136.285 196.751 128.6 199.614 120.017 200.697C118.58 200.877 117.137 200.929 115.699 201.068C115.073 201.132 114.714 201.01 114.401 200.471C113.126 198.269 111.834 196.073 110.941 193.407V193.413Z" fill="white"/>
<path d="M173.932 195.766C176.639 195.731 179.264 196.038 181.895 195.528C188.12 194.311 193.225 191.228 197.247 186.377C201.583 181.155 206.277 176.391 212.559 173.517C214.721 172.526 214.837 172.584 216.066 174.624C216.836 175.899 217.451 177.243 217.972 178.64C218.21 179.283 218.285 179.625 217.445 179.88C211.893 181.578 207.761 185.166 204.272 189.698C198.731 196.89 191.075 200.333 182.388 202.222C178.818 202.998 176.865 201.967 175.439 198.907C174.964 197.881 174.17 197.006 173.926 195.771L173.932 195.766Z" fill="white"/>
<path d="M204.927 234.456C204.022 233.338 204.399 231.964 204.243 230.713C203.959 228.429 203.599 226.134 203.843 223.81C208.989 221.532 213.365 218.397 215.822 213.112C216.471 211.715 216.871 210.231 217.109 208.719C217.236 207.907 217.52 207.716 218.355 207.878C220.847 208.371 223.362 208.771 225.872 209.176C226.984 209.356 227.315 209.779 227.042 211.008C224.904 220.518 219.502 227.525 210.936 232.069C209.047 233.071 206.938 233.668 204.927 234.456Z" fill="white"/>
<path d="M118.8 223.59C118.568 226.951 118.215 230.289 117.154 233.512C109.956 232.098 104.05 228.661 99.9182 222.471C97.9593 219.544 96.1453 216.537 95.0963 213.14C94.4877 211.176 94.5051 211.193 96.3771 210.648C98.6026 210.005 100.898 209.727 103.181 209.402C103.737 209.321 104.294 209.182 104.491 210.063C106.119 217.557 111.283 221.422 118.267 223.399C118.452 223.451 118.626 223.526 118.806 223.59H118.8Z" fill="white"/>
<path d="M212.117 169.581C209.886 170.584 207.799 171.529 205.864 172.792C200.949 175.991 196.55 179.776 192.748 184.232C188.118 189.663 182.114 191.512 175.223 191.176C172.348 191.036 172.348 191.048 171.977 188.098C171.705 185.936 171.705 185.925 173.861 185.936C176.127 185.948 178.41 186.203 180.641 185.791C183.73 185.224 185.869 183.079 187.932 180.929C192.093 176.588 196.162 172.155 201.024 168.55C202.34 167.57 203.766 166.782 205.157 165.93C205.667 165.617 206.223 165.443 206.791 165.78C208.64 166.869 210.465 167.993 212.117 169.581Z" fill="white"/>
<path d="M151.81 171.262C143.523 173.829 136.921 178.582 130.819 184.186C125.719 188.869 119.575 190.202 112.864 189.275C109.769 188.846 109.775 188.776 109.955 185.571C110.077 183.404 110.071 183.409 112.186 183.827C114.713 184.325 117.269 184.383 119.813 184.163C122.131 183.96 123.824 182.407 125.539 181.022C129.81 177.579 133.757 173.737 138.365 170.717C140.376 169.396 142.439 168.167 144.606 167.13C145.539 166.684 146.438 166.666 147.33 167.31C148.895 168.428 150.274 169.738 151.81 171.268V171.262Z" fill="white"/>
<path d="M223.17 159.271C223.037 162.412 222.585 165.107 221.89 167.767C221.733 168.376 221.49 168.672 220.771 168.312C218.928 167.397 216.94 167.089 214.894 167.136C214.297 167.147 213.816 167.078 213.909 166.301C214.581 160.749 213.538 155.255 213.359 149.738C213.318 148.451 213.393 147.112 214.836 146.591C216.256 146.075 217.468 146.637 218.47 147.715C221.6 151.082 223.008 155.122 223.165 159.277L223.17 159.271Z" fill="#CF6341"/>
<path d="M95.2407 159.341C95.3913 155.365 96.1795 151.835 98.6832 148.891C99.6163 147.796 100.613 146.388 102.236 146.961C103.847 147.529 104.287 149.216 104.34 150.781C104.398 152.508 104.258 154.252 104.067 155.973C103.679 159.462 104.108 162.899 104.693 166.318C104.873 167.362 104.74 167.657 103.656 167.675C101.703 167.704 99.8887 168.411 98.121 169.176C97.4893 169.448 97.159 169.581 96.8518 168.741C95.7101 165.623 95.1943 162.412 95.2407 159.341Z" fill="#F04E23"/>
<path d="M119.222 209.188C119.222 212.219 119.222 215.244 119.227 218.275C119.227 219.006 119.198 219.718 118.781 220.356C115.321 219.168 112.261 217.377 109.746 214.653C108.222 213.001 107.439 211.031 106.703 208.985C106.454 208.29 106.9 207.983 107.312 207.693C109.166 206.383 110.592 204.766 111.235 202.535C111.398 201.984 111.728 201.602 112.174 202.315C113.959 205.183 116.48 207.293 119.216 209.188H119.222Z" fill="#F9F3E3"/>
<path d="M97.8142 181.323C96.6782 181.312 95.8147 181.306 95.0555 180.773C93.1835 179.451 92.8706 177.579 94.3832 175.817C96.7072 173.117 99.6919 171.442 103.123 170.567C105.719 169.906 107.904 171.019 110.025 172.329C110.645 172.711 110.611 173.082 110.361 173.737C109.249 176.64 107.243 178.478 104.241 179.318C101.999 179.944 100.028 181.474 97.8142 181.323Z" fill="#F04E23"/>
<path d="M227.318 166.492C225.446 167.002 224.855 168.689 223.545 169.564C224.722 167.049 225.133 164.342 225.788 161.705C225.956 161.027 226.316 160.778 226.959 160.656C229.445 160.181 231.943 161.537 233.108 163.942C234.644 167.118 234.001 170.352 233.456 173.586C233.172 175.255 232.662 176.861 231.839 178.356C231.462 179.045 230.993 179.66 230.338 180.094C229.729 180.5 229.051 180.796 228.338 180.274C227.562 179.712 228.211 179.167 228.39 178.634C229.167 176.374 228.802 174.264 227.115 172.63C225.84 171.401 225.945 170.254 226.588 168.886C226.913 168.202 227.237 167.507 227.324 166.492H227.318Z" fill="#F04E23"/>
<path d="M95.1632 170.712C94.2939 169.889 93.4362 169.054 92.5437 168.254C92.2713 168.011 91.8772 167.738 91.5179 168.08C91.2165 168.364 91.4657 168.706 91.6106 169.002C91.7149 169.216 91.8018 169.448 91.9236 169.651C92.8914 171.297 93.384 172.694 91.6628 174.432C90.0458 176.067 90.3124 178.338 91.2513 180.402C91.4425 180.825 91.9641 181.178 91.3556 181.613C90.8514 181.972 90.3356 182.314 89.6343 181.955C88.7244 181.491 88.1449 180.715 87.658 179.897C85.4847 176.281 84.5806 172.294 84.8124 168.138C85.0211 164.377 87.687 161.92 90.863 162.041C91.8424 162.082 92.4509 162.372 92.6886 163.444C93.2333 165.936 94.3519 168.231 95.1632 170.706V170.712Z" fill="#F04E23"/>
<path d="M243.414 172.647C242.857 176.246 242.069 179.944 238.059 181.821C237.247 182.198 236.436 182.36 235.578 181.862C234.083 180.993 233.967 180.686 234.778 179.138C235.932 176.953 235.972 174.508 236.477 172.172C236.992 169.784 237.01 167.402 236.297 165.043C236.024 164.145 236.366 163.902 237.282 163.879C238.882 163.844 240.105 164.487 241.014 165.698C242.492 167.669 243.211 169.946 243.42 172.647H243.414Z" fill="#F04E23"/>
<path d="M82.0822 169.332C82.1807 173.708 83.1601 177.863 85.2523 181.729C85.6986 182.558 84.383 184.064 83.0848 184.18C81.3809 184.331 80.1233 183.363 79.0569 182.285C75.3652 178.564 74.8378 172.27 77.7413 167.906C78.0659 167.414 78.4774 166.985 78.9932 166.736C79.8683 166.313 80.8883 165.948 81.7634 166.371C82.6154 166.776 81.9952 167.75 82.0764 168.469C82.1112 168.753 82.0764 169.048 82.0764 169.332H82.0822Z" fill="#F04E23"/>
<path d="M203.684 220.536C203.232 219.973 203.215 219.307 203.186 218.629C203.093 216.618 202.983 214.607 202.878 212.596C205.202 211.587 207.625 210.793 209.752 209.368C210.708 208.724 211.664 208.075 212.569 207.368C213.113 206.945 213.571 206.933 214.145 207.264C214.771 207.629 214.788 208.098 214.62 208.73C213.38 213.401 210.586 216.844 206.396 219.179C205.515 219.672 204.588 220.083 203.684 220.53V220.536Z" fill="#F9F2E2"/>
<path d="M216.927 170.213C220.126 171.291 223.227 172.491 225.371 175.273C226.194 176.339 226.229 177.498 225.47 178.617C224.664 179.799 223.424 180.141 222.079 180.158C221.685 180.158 221.523 179.811 221.425 179.486C220.41 176.177 218.898 173.117 216.933 170.213H216.927Z" fill="#F04E23"/>
<path d="M151.606 262.449C151.606 278.804 151.611 295.159 151.606 311.514C151.606 311.983 151.409 312.458 151.391 312.928C151.351 313.913 150.887 314.214 149.913 314.203C145.764 314.156 141.614 314.151 137.47 314.203C136.45 314.214 136.143 313.797 136.01 312.899C135.79 311.409 135.848 309.914 135.842 308.425C135.836 303.504 135.813 298.584 135.853 293.663C135.865 292.273 135.656 291.351 133.993 291.05C132.138 290.714 131.373 289.699 131.455 288.401C131.547 286.836 132.486 285.863 134.41 285.619C135.448 285.486 135.772 285.08 135.766 284.06C135.749 278.949 135.795 273.837 135.819 268.72C135.842 266.94 135.877 265.161 135.882 263.388C135.882 262.779 135.998 262.385 136.746 262.379C141.701 262.339 146.656 262.194 151.611 262.455L151.606 262.449Z" fill="white"/>
<path d="M187.906 262.368C187.993 269.502 187.72 276.642 188.108 283.771C188.172 284.982 188.485 285.596 189.807 285.701C191.337 285.816 192.519 287.103 192.536 288.378C192.554 289.688 191.615 290.818 189.98 291.044C188.514 291.253 188.114 291.989 188.051 293.356C187.755 299.621 187.94 305.892 187.929 312.157C187.929 313.461 187.749 314.064 186.155 314.104C181.959 314.215 177.769 314.087 173.579 314.18C172.959 314.191 172.704 313.965 172.652 313.38C172.6 312.806 172.513 312.232 172.437 311.665C172.009 310.308 172.049 308.917 172.049 307.521C172.055 293.101 172.049 278.688 172.061 264.269C172.061 263.567 171.864 262.802 172.49 262.223C177.624 262.269 182.765 262.316 187.9 262.362L187.906 262.368Z" fill="white"/>
<path d="M166.084 236.352C174.262 236.485 180.915 230.904 183.111 223.88C183.355 223.103 183.308 222.489 182.451 221.932C181.112 221.063 180.358 219.678 180.109 218.096C179.976 217.226 180.011 216.259 181.147 216.044C182.172 215.853 182.891 216.23 183.077 217.4C183.279 218.687 183.766 219.689 185.395 219.55C186.902 219.423 187.811 218.838 187.933 217.203C187.985 216.49 188.466 216.032 189.307 216.004C190.222 215.975 190.46 216.56 190.622 217.244C190.999 218.878 189.463 221.648 187.696 222.286C186.728 222.634 186.206 223.138 185.945 224.146C184.299 230.516 180.48 235.106 174.412 237.685C169.161 239.916 163.893 239.945 158.602 237.598C155.003 235.998 152.198 233.535 149.973 230.371C148.634 228.464 147.84 226.285 147.26 224.042C147.017 223.109 146.663 222.448 145.724 221.973C144.119 221.162 143.331 219.649 143.001 217.922C142.827 217.024 143.087 216.253 144.107 216.056C145.064 215.87 145.806 216.073 145.968 217.25C146.159 218.646 146.924 219.556 148.425 219.585C149.984 219.614 150.627 218.664 150.83 217.255C150.981 216.23 151.688 215.986 152.627 216.021C153.705 216.061 153.635 216.803 153.687 217.545C153.85 219.858 152.441 221.237 150.72 222.286C149.996 222.726 149.932 222.993 150.17 223.717C152.354 230.469 156.887 234.642 163.812 236.172C164.693 236.369 165.632 236.323 166.096 236.357L166.084 236.352Z" fill="#0B0A09"/>
<path d="M172.492 262.229C172.463 277.216 172.428 292.209 172.399 307.196C172.399 308.686 172.428 310.181 172.44 311.67C171.663 310.5 171.611 309.184 171.611 307.828C171.628 293.258 171.622 278.688 171.622 264.112C171.622 263.73 171.611 263.341 171.53 262.971C171.466 262.675 171.211 262.472 170.886 262.495C170.51 262.518 170.458 262.826 170.446 263.127C170.434 263.562 170.434 263.996 170.434 264.431C170.434 278.763 170.434 293.09 170.434 307.422C170.434 308.859 170.295 310.279 169.895 311.665C169.467 310.5 169.611 309.277 169.606 308.089C169.577 293.107 169.588 278.132 169.588 263.15C169.588 262.913 169.611 262.669 169.629 262.432C170.556 262.02 171.518 262.072 172.486 262.229H172.492Z" fill="#626263"/>
<path d="M165.874 218.032C164.368 217.881 162.612 217.528 161.226 216.143C160.606 215.522 160.369 214.74 160.716 214.05C161.07 213.343 161.922 213.761 162.554 213.766C162.82 213.766 163.093 213.94 163.348 214.074C164.953 214.897 166.616 215.041 168.349 214.526C168.714 214.416 169.108 214.259 169.462 214.311C170.094 214.398 171.085 213.842 171.27 214.85C171.455 215.864 171.137 216.902 169.995 217.313C168.778 217.748 167.515 218.044 165.874 218.044V218.032Z" fill="#0D0B09"/>
<path d="M207.504 336.18C207.504 337.032 207.463 337.924 206.356 338.017C205.319 338.104 204.768 337.484 204.635 336.475C204.322 334.012 202.891 332.517 200.584 331.752C199.744 331.474 198.857 331.114 199.193 329.949C199.523 328.808 200.503 328.987 201.355 329.068C204.716 329.381 207.521 332.644 207.498 336.174L207.504 336.18Z" fill="#FCFCFC"/>
<path d="M123.967 328.182C125.051 328.077 125.445 328.779 125.538 329.66C125.631 330.564 125.225 331.074 124.217 331.132C121.649 331.271 120.142 332.783 119.343 335.113C119.047 335.977 118.751 336.875 117.592 336.527C116.474 336.185 116.277 335.409 116.567 334.25C117.546 330.349 120.826 328.524 123.967 328.182Z" fill="#FBFBFB"/>
<path d="M174.692 76.4879C165.842 78.5801 156.969 78.7134 148.09 76.5053C156.94 75.0506 165.801 75.1317 174.692 76.4879Z" fill="#CD6341"/>
<path d="M24.4645 355.606C20.2702 355.62 16.6536 354.94 13.6148 353.567C10.5761 352.193 8.20449 350.171 6.50008 347.499C4.84028 344.828 3.91458 341.506 3.72299 337.536C3.67233 335.706 3.64353 333.743 3.63661 331.646C3.62968 329.549 3.64537 327.541 3.68365 325.622C3.84932 321.74 4.77544 318.434 6.46204 315.707C8.14863 312.98 10.5067 310.919 13.5364 309.526C16.566 308.133 20.1557 307.429 24.3054 307.416C27.2503 307.406 29.9734 307.776 32.4747 308.526C34.9758 309.232 37.1657 310.296 39.0445 311.717C40.9231 313.094 42.3789 314.785 43.4118 316.79C44.4892 318.75 45.0543 320.979 45.1072 323.477C45.1531 323.879 45.0204 324.214 44.7089 324.483C44.4421 324.751 44.1078 324.886 43.7063 324.888L34.6706 324.917C34.0905 324.919 33.644 324.809 33.3309 324.587C33.0177 324.32 32.7484 323.853 32.5231 323.184C31.8906 320.821 30.859 319.218 29.4283 318.375C28.0422 317.488 26.3228 317.047 24.2703 317.054C21.8161 317.062 19.8774 317.76 18.4541 319.148C17.0307 320.491 16.2573 322.747 16.1339 325.916C16.0121 329.575 16.0245 333.323 16.171 337.16C16.3153 340.328 17.1037 342.601 18.5361 343.979C19.9684 345.313 21.9116 345.976 24.3657 345.968C26.4183 345.961 28.157 345.509 29.5819 344.612C31.0068 343.715 32.0055 342.105 32.5779 339.783C32.7542 339.113 32.9981 338.666 33.3097 338.442C33.6658 338.173 34.1339 338.038 34.7139 338.036L43.7496 338.006C44.1512 338.005 44.4863 338.137 44.7549 338.404C45.0681 338.671 45.2031 339.005 45.1598 339.407C45.1234 341.906 44.5731 344.161 43.5088 346.172C42.489 348.139 41.0445 349.839 39.1751 351.274C37.3056 352.663 35.1227 353.741 32.6265 354.508C30.1301 355.23 27.4094 355.596 24.4645 355.606ZM53.9217 354.839C53.4309 354.841 53.0288 354.686 52.7154 354.375C52.4021 354.063 52.2446 353.662 52.2429 353.171L52.0993 309.666C52.0977 309.176 52.2525 308.773 52.5638 308.46C52.8752 308.147 53.2762 307.989 53.767 307.988L62.4011 307.959C62.8919 307.957 63.294 308.112 63.6074 308.424C63.9654 308.735 64.1452 309.136 64.1468 309.627L64.2001 325.757L80.6651 325.703L80.6118 309.572C80.6102 309.081 80.765 308.679 81.0763 308.366C81.3877 308.053 81.7887 307.895 82.2796 307.893L90.9136 307.865C91.4044 307.863 91.8065 308.018 92.1199 308.329C92.4333 308.641 92.5908 309.042 92.5924 309.533L92.7361 353.038C92.7375 353.484 92.5827 353.886 92.2715 354.244C91.9602 354.557 91.5591 354.715 91.0683 354.716L82.4342 354.745C81.9434 354.747 81.5413 354.592 81.2279 354.28C80.9144 353.925 80.7569 353.523 80.7554 353.077L80.7004 336.411L64.2355 336.466L64.2905 353.132C64.292 353.578 64.1148 353.98 63.759 354.338C63.4477 354.652 63.0466 354.809 62.5558 354.811L53.9217 354.839ZM232.033 354.251C231.543 354.253 231.14 354.098 230.827 353.787C230.514 353.431 230.356 353.03 230.355 352.583L230.211 309.078C230.209 308.587 230.364 308.185 230.675 307.872C230.987 307.559 231.388 307.401 231.879 307.4L238.973 307.376C239.732 307.374 240.268 307.55 240.581 307.906C240.939 308.217 241.163 308.462 241.253 308.64L257.669 334.288L257.586 308.988C257.584 308.497 257.739 308.095 258.05 307.782C258.361 307.468 258.763 307.311 259.253 307.309L267.285 307.283C267.776 307.281 268.178 307.436 268.491 307.747C268.805 308.058 268.962 308.46 268.964 308.95L269.107 352.388C269.109 352.879 268.954 353.304 268.643 353.662C268.332 353.975 267.931 354.133 267.44 354.134L260.278 354.158C259.564 354.16 259.028 353.983 258.67 353.628C258.357 353.272 258.155 353.027 258.065 352.893L241.652 328.183L241.733 352.546C241.734 352.992 241.579 353.394 241.268 353.752C240.957 354.065 240.556 354.223 240.065 354.225L232.033 354.251Z" fill="#040707"/>
<path d="M297.812 354.703C293.573 354.717 289.912 354.038 286.828 352.665C283.789 351.247 281.418 349.202 279.713 346.53C278.053 343.814 277.128 340.515 276.936 336.634C276.885 334.715 276.856 332.685 276.849 330.543C276.842 328.357 276.858 326.282 276.896 324.318C277.062 320.525 277.988 317.309 279.675 314.671C281.362 312.033 283.743 310.017 286.817 308.624C289.891 307.23 293.503 306.527 297.653 306.513C300.999 306.502 303.968 306.916 306.559 307.755C309.149 308.55 311.317 309.636 313.062 311.013C314.851 312.391 316.217 313.903 317.16 315.551C318.102 317.199 318.598 318.826 318.648 320.432C318.65 320.834 318.494 321.169 318.183 321.438C317.916 321.707 317.582 321.841 317.18 321.843L307.408 321.875C306.918 321.877 306.538 321.811 306.27 321.678C306.046 321.5 305.845 321.256 305.665 320.944C305.351 320.276 304.88 319.585 304.253 318.874C303.67 318.117 302.843 317.473 301.77 316.941C300.742 316.409 299.38 316.145 297.685 316.151C295.186 316.159 293.202 316.835 291.734 318.179C290.266 319.522 289.47 321.667 289.346 324.612C289.225 328.45 289.238 332.332 289.384 336.258C289.529 339.381 290.362 341.632 291.883 343.01C293.405 344.388 295.437 345.073 297.981 345.064C299.632 345.059 301.103 344.764 302.395 344.18C303.732 343.595 304.778 342.699 305.532 341.492C306.287 340.24 306.661 338.655 306.654 336.736L306.65 335.465L300.359 335.485C299.868 335.487 299.466 335.332 299.152 335.021C298.839 334.665 298.681 334.242 298.68 333.751L298.663 328.798C298.662 328.307 298.817 327.905 299.128 327.592C299.439 327.234 299.84 327.054 300.331 327.052L317.197 326.996C317.688 326.995 318.09 327.172 318.404 327.528C318.717 327.839 318.875 328.24 318.876 328.731L318.902 336.361C318.914 340.199 318.055 343.481 316.324 346.209C314.593 348.936 312.123 351.042 308.915 352.525C305.752 353.963 302.051 354.689 297.812 354.703ZM346.318 354.543C342.258 354.556 338.708 353.921 335.67 352.637C332.676 351.308 330.349 349.286 328.689 346.569C327.029 343.808 326.192 340.308 326.178 336.069L326.088 308.762C326.086 308.271 326.241 307.869 326.552 307.555C326.864 307.242 327.265 307.085 327.755 307.083L336.389 307.054C336.88 307.053 337.282 307.208 337.596 307.519C337.954 307.83 338.134 308.231 338.135 308.722L338.225 335.963C338.235 338.863 338.934 341.047 340.322 342.515C341.71 343.938 343.675 344.646 346.219 344.637C348.717 344.629 350.656 343.909 352.035 342.476C353.458 340.999 354.164 338.811 354.155 335.91L354.065 308.669C354.063 308.179 354.218 307.776 354.529 307.463C354.885 307.15 355.286 306.992 355.732 306.991L364.433 306.962C364.88 306.96 365.259 307.115 365.573 307.427C365.931 307.738 366.111 308.139 366.112 308.63L366.202 335.937C366.216 340.176 365.403 343.682 363.761 346.454C362.119 349.181 359.805 351.219 356.82 352.567C353.835 353.871 350.334 354.53 346.318 354.543Z" fill="#F04E23"/>
</svg>
