<svg width="183" height="324" viewBox="0 0 183 324" fill="none" xmlns="http://www.w3.org/2000/svg">
<path d="M53.0499 148.896C53.4098 146.079 53.0968 143.258 52.9717 140.447C52.6014 132.378 53.415 124.493 56.3043 116.915C58.0254 112.398 60.8835 108.507 63.5277 104.512C65.5305 101.487 67.528 98.4624 69.4525 95.3905C70.6207 93.5286 71.2362 91.4529 71.3874 89.2467C71.9455 80.9802 72.5244 72.7138 73.4944 64.4786C73.7709 62.1108 74.0003 59.7377 74.2455 57.3647C73.9586 56.4311 74.501 55.5497 74.428 54.6266C74.7514 52.3944 75.0278 50.1517 75.7006 47.9821C76.0813 46.7513 75.9926 45.5674 75.2468 44.493C73.7083 42.2764 73.8126 40.1016 75.4294 37.9945C76.0813 37.1444 76.2117 36.2995 75.7684 35.3294C75.5858 34.9383 75.492 34.5002 75.4711 34.0673C75.2677 29.3943 76.1595 28.3773 80.7491 27.5584C83.1534 27.1308 85.5943 27.2977 88.0247 27.2559C94.0589 27.1464 100.088 27.3811 106.117 27.5376C109.857 27.6314 112.12 30.2913 111.687 33.9995C111.63 34.4741 111.541 34.9435 111.609 35.4233C111.619 35.465 111.645 35.5224 111.63 35.5433C110.712 36.5864 111.16 37.5251 111.849 38.4431C111.791 38.7612 111.911 39.0324 112.047 39.314C112.939 41.1342 112.767 42.8032 111.452 44.3887C110.31 45.7656 110.472 47.3876 111.129 48.8322C112.662 52.2014 112.803 55.8105 113.111 59.3779C113.846 67.8478 114.337 76.3437 115.176 84.8032C115.776 90.8062 118.149 96.2771 121.304 101.373C123.657 105.169 126.405 108.726 128.57 112.638C131.229 117.457 132.982 122.6 133.456 128.133C133.848 132.671 134.526 137.187 134.192 141.761C134.108 142.888 133.999 144.009 133.9 145.13C133.613 145.354 133.331 145.224 133.039 145.141C122.739 142.037 113.742 143.988 106.414 152.129C104.725 154.007 103.426 156.171 102.56 158.576C102.106 159.838 101.741 159.953 100.656 159.243C98.1166 157.59 95.5662 157.799 93.0263 159.186C91.4773 160.031 91.2895 159.916 90.5802 158.294C87.2111 150.565 81.5627 145.542 73.1085 144.118C68.5919 143.357 64.1066 143.665 59.7987 145.386C57.8898 146.147 56.1896 147.274 54.5259 148.458C54.093 148.765 53.707 149.323 53.0499 148.891V148.896Z" fill="#F04E23"/>
<path d="M53.0499 148.896C54.2338 148.526 55.0317 147.566 56.0331 146.919C61.4885 143.414 67.4706 142.783 73.6613 143.858C79.8155 144.922 84.6763 148.187 88.2645 153.329C89.5058 155.113 90.7106 156.896 91.2791 159.024C91.4616 159.713 91.7537 159.65 92.2909 159.275C95.3002 157.173 98.0174 157.136 101.042 159.155C102.252 159.958 102.112 158.748 102.299 158.294C105.147 151.378 110.242 146.778 117.215 144.437C121.993 142.836 126.963 143.138 131.845 144.317C132.554 144.489 133.211 144.849 133.894 145.125C135.61 145.829 137.212 146.737 138.813 147.889C139.094 147.274 138.948 146.679 138.948 146.116C138.933 142.204 137.869 138.397 137.801 134.486C137.785 133.703 137.743 132.921 137.947 132.154C138.959 128.373 143.053 127.283 146.161 129.859C149.468 132.598 150.918 136.259 151.627 140.306C151.794 141.245 151.94 141.584 153.056 141.453C155.064 141.214 156.921 141.923 158.444 143.263C159.45 144.15 160.373 144.927 161.86 144.473C162.705 144.212 163.826 144.932 164.462 144.233C164.994 143.649 165.041 142.637 165.333 141.824C165.787 140.562 166.183 139.252 167.023 138.194C169.125 135.555 173.104 135.967 175.196 139.033C177.511 142.423 177.788 146.168 177.177 150.127C176.536 154.289 174.81 157.95 172.478 161.376C171.811 162.357 171.779 163.353 172.118 164.454C173.386 168.589 172.833 172.537 170.486 176.126C168.452 179.234 165.594 181.252 161.755 181.503C160.65 181.576 159.951 181.915 159.539 183.015C158.866 184.799 157.823 186.291 155.81 186.817C155.158 186.989 155.22 187.657 155.179 188.126C154.808 191.996 153.437 195.538 151.497 198.844C147.914 204.951 143.089 209.708 136.241 212.071C135.266 212.41 134.233 212.576 133.222 212.822C132.21 212.196 132.512 211.267 132.669 210.381C133.164 209.614 134.03 209.494 134.786 209.228C144.242 205.875 149.895 199.152 152.295 189.54C152.628 188.205 152.534 188.095 151.147 187.855C149.353 187.548 147.543 187.318 145.77 186.901C144.836 186.682 144.268 186.88 144.059 187.892C142.802 194.067 138.641 197.765 133.31 200.451C132.831 200.69 132.351 201.102 131.741 200.753C131.313 199.689 130.489 198.636 131.647 197.525C134.515 196.205 137.175 194.609 138.995 191.913C139.924 190.541 140.721 189.102 141.144 187.485C141.253 187.073 141.436 186.598 141.014 186.275C140.555 185.92 140.075 186.165 139.699 186.458C138.599 187.313 137.425 188.033 136.221 188.731C134.552 189.702 132.778 190.364 130.943 190.911C123.829 192.716 117.153 191.772 111.004 187.673C105.533 184.022 102.237 178.895 100.756 172.527C100.135 169.867 100.156 167.181 100.218 164.49C100.255 162.993 99.8376 161.846 98.3721 161.246C96.7918 160.594 95.0133 160.917 93.9025 162.034C93.3027 162.639 93.1619 163.369 93.141 164.177C93.0888 166.347 93.1514 168.506 92.9637 170.681C92.5725 175.15 90.7106 178.989 87.9986 182.389C82.9448 188.721 76.2847 191.929 68.1486 191.756C63.6789 191.657 59.517 190.343 55.7463 187.887C53.4567 186.431 51.4539 184.669 49.8111 182.499C49.0548 181.503 49.0444 181.518 48.5437 182.629C47.9283 183.991 47.146 185.253 45.8526 186.061C44.8721 186.671 44.8355 187.349 45.2319 188.356C46.8435 192.471 49.905 195.026 53.8843 196.633C54.5624 196.909 55.3082 197.06 55.7567 197.728C56.2678 198.677 56.0957 199.59 55.6263 200.492C55.3395 200.784 54.99 200.743 54.6562 200.638C49.5555 199.115 45.2528 196.596 43.1144 191.381C42.8328 190.698 42.5773 190.004 42.4156 189.284C42.2174 188.408 41.7584 188.059 40.8301 188.205C38.989 188.497 37.1428 188.747 35.3382 189.243C34.0813 189.592 34.0396 189.655 34.3994 190.958C34.6811 191.965 35.0827 192.93 35.5468 193.858C38.1024 198.969 41.2421 203.595 46.4106 206.464C48.3612 207.544 50.5152 208.086 52.6013 208.811C53.1229 208.993 53.7331 208.973 54.1086 209.484C54.4215 210.589 54.4737 211.632 53.441 212.43C47.4746 211.382 42.7285 208.268 38.697 203.861C35.4373 200.299 33.4398 196.059 31.7343 191.631C31.4684 190.932 29.0327 187.615 28.4695 187.151C27.7237 186.546 26.9935 185.889 26.6493 184.976C26.1695 183.699 25.1785 183.464 23.9894 183.344C21.679 183.109 19.5146 182.421 17.637 180.976C13.2039 177.565 11.7279 172.981 12.6145 167.63C12.9014 165.893 12.7032 164.558 11.6184 163.197C8.64035 159.457 6.88796 155.18 6.25689 150.429C5.7875 146.893 6.63762 143.733 8.64557 140.822C10.0798 138.741 14.5964 137.86 16.4531 140.906C17.4232 142.502 18.3985 144.082 18.774 145.939C18.9148 146.622 19.1234 146.846 19.9005 146.627C20.9853 146.319 22.1431 146.648 23.228 146.622C24.3441 146.591 24.3545 144.864 25.3871 144.285C26.8788 143.451 28.4173 142.674 30.1228 142.726C31.3797 142.762 31.4579 142.231 31.557 141.24C31.9377 137.448 33.2312 133.99 35.8024 131.122C37.7634 128.931 40.2877 128.451 42.6555 129.755C44.4496 130.746 45.0233 132.472 45.0181 134.366C44.9972 138.006 44.8616 141.652 44.7834 145.292C44.773 145.767 44.8773 146.257 44.8147 146.721C44.3453 150.002 46.4471 151.368 48.9975 152.427C49.519 152.646 49.905 152.531 50.2596 152.119C51.188 151.039 52.1267 149.965 53.0603 148.891L53.0499 148.896Z" fill="#080909"/>
<path d="M55.7828 187.568C59.8508 190.108 64.284 191.579 69.077 191.407C78.5534 191.057 85.5682 186.619 90.1787 178.295C92.5517 174.013 92.9846 169.424 92.6925 164.704C92.5413 162.237 93.7095 161.392 95.3002 160.74C97.0526 160.02 99.1075 160.657 100.192 162.122C100.943 163.129 100.688 164.302 100.636 165.397C100.505 168.104 100.698 170.764 101.355 173.393C104.057 184.225 114.399 191.965 125.55 191.423C127.401 191.334 129.232 190.911 131.073 190.645C131.568 191.063 131.485 191.668 131.574 192.21C131.866 194.062 131.819 195.923 131.803 197.785C131.026 198.213 131.501 198.844 131.574 199.381C131.631 199.84 131.814 200.289 131.944 200.743C132.627 201.806 132.22 203.016 132.387 204.148C132.685 206.193 132.951 208.248 132.919 210.318C132.789 211.184 132.784 212.039 133.243 212.827C133.895 218.731 133.462 224.515 131.459 230.147C130.025 234.179 128.022 235.545 123.75 235.41C122.467 235.368 121.169 235.05 119.886 235.415C119.051 235.743 118.144 235.644 117.283 235.848C112.814 236.056 108.349 235.806 103.89 235.592C102.946 235.535 102.007 235.613 101.074 235.759C96.505 236.077 91.9154 235.639 87.3467 236.093C86.4548 235.931 85.5786 235.524 84.6399 235.843C80.9265 235.973 77.2131 235.874 73.4997 235.9C71.3353 235.916 71.3353 235.91 71.3248 238.028C71.3248 238.716 71.3457 239.41 71.3092 240.098C71.2831 240.609 71.3092 241.152 70.8033 241.491C70.1879 241.313 70.2817 240.771 70.2452 240.333C70.1774 239.519 70.2191 238.706 70.2191 237.887C70.2191 236.618 69.6229 235.872 68.4303 235.65C66.3702 235.269 64.2892 235.477 62.2187 235.415C59.4127 235.331 56.9719 234.518 55.6003 231.853C54.7293 230.158 54.1399 228.337 53.7123 226.476C52.737 222.22 52.9769 217.948 53.5193 213.666C53.5714 213.249 53.7853 212.827 53.4567 212.43C53.9887 211.497 54.0826 210.49 53.9365 209.452C53.7331 208.654 54.0356 207.903 54.1608 207.142C54.4372 205.426 54.7971 203.726 54.9118 201.984C54.9483 201.462 55.0839 200.956 55.4177 200.529C55.7202 199.559 55.908 198.589 55.4021 197.618C55.2247 194.573 55.3343 191.522 55.376 188.471C55.376 188.126 55.4855 187.787 55.7932 187.568H55.7828Z" fill="#F04E23"/>
<path d="M84.9267 235.498C85.7559 235.159 86.5278 235.076 87.1172 235.936C87.6283 237.298 87.67 238.737 87.6752 240.145C87.7169 251.426 87.7326 262.712 87.6648 273.993C87.6491 276.153 87.4353 278.322 87.3831 280.487C87.3675 281.201 87.4666 281.78 88.1498 282.119C90.2151 283.157 90.7158 285.014 90.4915 287.058C90.3455 288.373 90.7315 289.092 91.785 289.848C93.2453 290.897 94.2415 292.383 94.7265 294.459C95.4149 292.587 96.5675 291.361 97.814 290.219C98.2938 289.781 98.4138 289.337 98.1583 288.717C97.6628 287.512 97.788 286.239 97.9392 284.993C98.0539 284.049 98.4712 283.152 99.3317 282.75C100.756 282.088 101.22 281.014 101.121 279.558C101.314 278.14 101.507 276.732 101.507 275.297C101.486 262.702 101.496 250.107 101.496 237.511C101.496 237.079 101.454 236.64 101.533 236.213C101.611 235.775 101.741 235.337 102.315 235.352C102.81 235.368 103.102 235.665 103.238 236.129C103.368 236.599 103.316 237.079 103.316 237.553C103.316 250.493 103.327 263.437 103.306 276.377C103.306 277.524 103.374 278.62 103.958 279.631C104.278 281.005 105.164 281.693 106.618 281.697C108.959 281.697 111.301 281.697 113.643 281.697C114.295 281.697 114.942 281.634 115.588 281.587C116.73 281.509 117.122 280.946 117.111 279.819C117.075 275.616 117.111 271.407 117.085 267.198C117.075 265.758 117.242 264.345 117.377 262.921C117.476 261.899 117.956 261.242 118.952 260.929C120.042 260.585 121.231 260.225 121.143 258.764C121.064 257.44 119.98 257.043 118.89 256.783C117.674 256.49 117.45 255.604 117.351 254.529C116.866 249.204 117.184 243.869 117.09 238.539C117.08 237.934 117.08 237.324 117.101 236.719C117.122 236.239 117.163 235.759 117.57 235.42C118.326 235.269 119.088 234.992 119.849 235.404C119.849 241.308 119.87 247.217 119.844 253.127C119.844 253.982 119.959 254.394 120.955 254.576C122.431 254.848 123.375 255.938 123.688 257.398C124.032 258.994 124.058 260.621 122.817 261.915C122.201 262.561 121.555 263.244 120.564 263.344C119.729 263.427 119.86 264.063 119.86 264.621C119.86 269.399 119.86 274.176 119.86 278.953C119.86 279.386 119.948 279.856 119.813 280.247C119.333 281.676 119.886 282.057 121.284 282.104C123.672 282.187 125.2 283.804 125.065 286.177C124.992 287.47 125.508 287.721 126.598 287.908C135.005 289.343 140.565 294.115 143.141 302.272C143.637 303.842 143.757 305.5 143.757 307.148C143.757 307.92 143.679 308.713 143.121 309.344C142.688 309.829 142.104 309.98 141.499 310.09C140.68 310.23 139.856 310.241 139.026 310.22C131.86 310.037 124.694 310.382 117.534 310.564C112.016 310.705 106.503 310.715 100.99 310.731C83.3151 310.788 65.6399 310.731 47.97 310.736C47.1564 310.736 46.2959 310.862 45.6283 310.199C44.4496 306.46 45.2163 302.887 46.8435 299.518C49.5138 293.984 53.9156 290.438 59.8664 288.842C60.6644 288.628 61.4728 288.492 62.3021 288.503C63.1105 288.513 63.4755 288.336 63.3399 287.324C63.0792 285.353 63.3764 283.506 65.4313 282.448C66.1302 282.088 66.8499 282.104 67.5801 282.083C68.2946 282.062 68.5919 281.879 68.5502 281.008C68.2946 275.808 68.3885 270.598 68.4824 265.393C68.5032 264.324 68.5606 263.505 67.1681 263.062C65.4313 262.509 64.4717 260.475 64.5969 258.525C64.722 256.605 65.8381 255.051 67.6062 254.571C68.352 254.368 68.425 253.987 68.4198 253.361C68.3989 247.457 68.3937 241.559 68.3885 235.655C68.7014 235.243 69.1812 235.41 69.5828 235.311C70.3547 235.118 70.6781 235.42 70.6624 236.239C70.6311 237.871 70.6781 239.504 70.6937 241.141C70.9649 241.788 71.0327 242.466 71.0327 243.165C71.0223 246.816 71.0379 250.461 71.0223 254.112C71.0171 256.125 70.9075 256.271 69.0352 256.887C68.0338 257.221 67.3402 257.82 67.3245 258.926C67.3089 259.969 68.086 260.392 68.9309 260.731C70.9023 261.523 71.0171 261.69 71.0223 263.797C71.0327 268.272 71.0327 272.747 71.0223 277.222C71.0223 278.312 71.137 279.386 71.3091 280.461C71.4291 281.212 71.8046 281.639 72.5921 281.655C76.0656 281.718 79.5391 281.702 83.0178 281.665C83.8158 281.655 84.1704 281.206 84.3269 280.487C84.5042 279.668 84.4834 278.844 84.4834 278.02C84.4834 264.637 84.4834 251.259 84.4938 237.877C84.4938 237.068 84.306 236.213 84.9058 235.498H84.9267Z" fill="#080909"/>
<path d="M45.6492 310.199C46.2542 310.246 46.8539 310.329 47.4589 310.329C61.8849 310.335 76.3056 310.225 90.7263 310.376C98.7998 310.46 106.868 310.262 114.936 310.178C123.531 310.09 132.121 309.855 140.716 309.662C141.53 309.641 142.333 309.453 143.141 309.344C142.729 313.751 140.868 317.183 136.685 319.112C135.261 319.769 133.754 319.9 132.246 319.936C123.224 320.161 114.196 320.228 105.178 320.562C100.192 320.75 95.441 317.229 94.6691 312.854C94.6483 312.734 94.5648 312.624 94.4709 312.431C93.5895 314.877 92.4943 317.083 90.3351 318.596C88.0664 320.187 85.5004 320.677 82.8196 320.682C74.3498 320.703 65.8799 320.708 57.4152 320.682C53.6497 320.672 50.3118 319.603 47.9075 316.478C46.4889 314.632 45.983 312.442 45.6544 310.199H45.6492Z" fill="#F04E23"/>
<path d="M111.844 38.443C111.551 38.2031 111.233 37.9893 110.973 37.7181C110.018 36.7428 110.081 36.4559 111.343 35.851C111.624 35.2199 112.282 35.1208 112.803 34.8444C114.284 34.0568 115.124 32.8781 115.051 31.1883C114.973 29.4516 114.024 28.2208 112.422 27.6471C110.748 27.0473 110.081 26.0146 110.102 24.2205C110.138 20.5801 107.671 17.9307 104.093 17.6125C102.367 17.4561 101.141 16.7624 100.192 15.2291C98.2208 12.0477 95.248 10.217 91.5033 10.4361C87.55 10.6656 84.3894 12.5588 82.6057 16.293C81.7243 18.1341 81.0515 18.4261 79.2418 17.4926C77.8284 16.7624 76.415 16.2304 74.7826 16.2982C72.18 16.4026 70.2868 17.6073 69.2125 19.9282C68.1589 22.2073 68.4667 24.4239 70.0417 26.411C70.5007 26.9899 71.0014 27.5323 71.4134 28.1477C72.2113 29.3369 72.107 30.067 71.0066 30.9536C70.6363 31.2561 70.219 31.4908 69.8487 31.7933C68.232 33.1181 67.2775 34.7557 67.6843 36.9097C68.0911 39.048 69.4159 40.4562 71.4342 41.2229C72.3 41.5514 73.4057 41.5201 73.7968 42.605C74.2871 43.9505 74.2036 45.3431 73.9585 46.7147C73.849 47.3197 73.2753 47.5753 72.785 47.8569C71.9819 48.3211 71.2778 48.8844 70.8814 49.7553C70.0104 51.6903 70.9701 53.6878 73.0197 54.2719C73.5987 54.4336 74.2506 54.3136 74.7565 54.7361C74.9182 55.6801 74.5792 56.5198 74.2506 57.3699C70.3286 57.7245 67.7156 54.7569 67.3923 51.8728C67.1263 49.4946 68.0442 47.5596 69.9165 46.0837C71.3769 44.931 71.3508 44.6703 69.6714 43.8306C64.2161 41.0925 62.9904 34.6305 67.1106 30.0931C67.7991 29.3316 67.773 28.8362 67.2462 27.9808C63.9918 22.7185 65.8798 16.1053 71.3143 13.8678C73.8803 12.8091 76.5715 12.8821 79.1479 13.9565C79.9406 14.2851 80.3005 14.3112 80.7542 13.5132C85.3125 5.48663 97.741 5.38753 102.492 13.1742C102.956 13.9304 103.52 14.3164 104.443 14.4311C108.928 14.9892 111.682 17.6021 112.934 21.8736C113.387 23.433 114.039 24.6012 115.291 25.5765C117.893 27.6053 118.65 30.2861 117.826 33.3423C117.028 36.3256 114.712 37.765 111.844 38.4482V38.443Z" fill="#090A0A"/>
<path d="M37.2053 80.3753C34.1751 80.3753 31.1397 80.3649 28.1095 80.3649C27.588 80.3649 27.1029 80.3544 26.6231 80.0467C25.8095 79.5252 25.7365 79.0506 26.5292 78.4717C27.0143 78.1848 27.4993 77.9605 28.1043 77.9762C30.9102 78.0596 33.7266 77.8406 36.5272 78.1014C37.4191 78.1848 37.6486 77.7728 37.6381 76.9644C37.6121 74.5862 37.6121 72.2079 37.6381 69.8297C37.6486 68.8857 37.6381 67.9312 38.0136 67.029C38.2692 66.5596 38.6917 66.2258 39.1819 66.4396C39.7452 66.6847 39.8599 67.3158 39.8651 67.8895C39.8912 70.1478 39.8964 72.4061 39.9016 74.6644C39.9016 76.8931 41.0334 78.0057 43.2969 78.0023C45.2057 78.0023 47.1198 77.9918 49.0287 77.9971C49.4198 77.9971 49.8266 77.9605 50.1969 78.0544C50.8958 78.237 51.5947 78.5968 51.5373 79.4104C51.4851 80.2084 50.7446 80.3753 50.0665 80.3753C47.1146 80.3701 44.1574 80.3753 41.2055 80.2918C40.1989 80.2658 39.8547 80.5318 39.8756 81.5905C39.9434 84.5007 39.8756 87.4109 39.8756 90.3211C39.8756 90.9001 39.8912 91.4581 39.3384 91.8284C38.0293 91.7241 37.6538 91.3747 37.6381 90.1021C37.6068 87.3275 37.6329 84.5581 37.6277 81.7835C37.6277 81.2723 37.732 80.7247 37.2053 80.3649V80.3753Z" fill="#F04E23"/>
<path d="M147.517 9.68512C148.717 8.97582 149.217 9.26267 149.249 10.8012C149.301 13.7062 149.337 16.6112 149.275 19.5162C149.249 20.6115 149.583 20.8931 150.652 20.867C153.51 20.7992 156.373 20.8879 159.236 20.8514C160.086 20.841 160.791 21.0391 160.796 21.9414C160.796 22.8176 160.071 23.1723 159.252 23.1775C156.519 23.1983 153.791 23.1931 151.059 23.1983C149.89 23.1983 149.306 23.7842 149.306 24.9559C149.306 27.4698 149.306 29.9836 149.306 32.5027C149.306 33.2016 149.296 33.8952 148.858 34.4898C147.569 34.5837 147.204 34.3177 147.152 33.0503C147.095 31.5796 147.09 30.0984 147.152 28.6276C147.21 27.1569 146.917 25.6913 147.126 24.2206C147.246 23.3496 146.672 23.2401 145.984 23.2401C143.423 23.2505 140.862 23.1983 138.307 23.2661C137.196 23.2974 136.262 23.0627 135.501 22.2491C135.642 21.2113 136.309 20.8462 137.274 20.8514C140.247 20.8514 143.225 20.8514 146.198 20.8566C147.058 20.7679 147.157 20.1942 147.152 19.4693C147.126 17.0128 147.152 14.5511 147.137 12.0947C147.137 11.2654 147.215 10.4622 147.533 9.69555L147.517 9.68512Z" fill="#F04E23"/>
<path d="M135.485 22.2388C137.368 23.4227 139.465 22.8646 141.478 22.9429C143.032 23.0054 144.602 23.0315 146.151 22.922C147.439 22.8281 147.496 23.4383 147.475 24.4658C147.423 27.4855 147.475 30.5105 147.486 33.5302C147.486 34.4899 148.169 34.4846 148.842 34.4899C147.601 34.9384 146.771 34.3542 146.745 32.8731C146.693 30.281 146.657 27.6785 146.751 25.0864C146.797 23.793 146.464 23.3653 145.113 23.4227C142.521 23.5374 139.924 23.4435 137.326 23.4435C136.445 23.4435 135.72 23.2141 135.475 22.2388H135.485Z" fill="#E0A47F"/>
<path d="M38.0137 67.0342C38.0189 70.5025 37.9928 73.9655 38.0554 77.4338C38.0763 78.5082 37.4869 78.5499 36.7411 78.456C33.9352 78.1118 31.1189 78.2943 28.3078 78.2683C27.7132 78.263 27.1239 78.4039 26.5293 78.4769C26.8579 77.8406 27.4159 77.7571 28.0626 77.7571C30.7017 77.7571 33.3407 77.6789 35.9797 77.7206C36.9915 77.7363 37.3044 77.4338 37.3096 76.3959C37.3201 73.6317 37.0801 70.8623 37.44 68.0981C37.4974 67.6496 37.5235 67.2324 38.0085 67.0342H38.0137Z" fill="#E1A783"/>
<path d="M37.2053 80.3753C38.1597 80.1876 38.0241 80.876 38.0241 81.4236C38.0346 84.3286 38.0711 87.2336 38.0241 90.1386C38.0085 91.1452 38.3319 91.7137 39.3437 91.8389C38.1441 92.1935 37.2992 91.5937 37.2888 90.3159C37.2679 87.5622 37.2888 84.8084 37.2783 82.0547C37.2783 81.4966 37.2314 80.9386 37.2053 80.3805V80.3753Z" fill="#E2AB87"/>
<path d="M147.517 9.68506C147.507 13.0021 147.47 16.3139 147.517 19.6309C147.533 20.6584 147.225 21.0912 146.187 20.8461C146.818 20.601 146.735 20.0534 146.735 19.5423C146.735 17.0023 146.735 14.4572 146.735 11.9173C146.735 11.0776 146.844 10.2848 147.522 9.68506H147.517Z" fill="#DE9D78"/>
<path d="M74.7513 54.731C73.0041 54.8613 71.4551 54.5745 70.5633 52.8221C69.6245 50.981 70.3129 48.6863 72.2896 47.7735C73.4787 47.2207 73.922 46.501 73.7395 45.2597C73.6821 44.879 73.7134 44.4774 73.7291 44.0862C73.7969 42.7302 73.2805 41.9896 71.8463 41.6558C69.4315 41.0978 67.7782 39.5488 67.2984 37.0454C66.8082 34.4689 68.0859 32.607 70.0469 31.1571C72.034 29.6812 72.1175 29.4986 70.4903 27.5533C69.3585 26.2025 68.3415 24.8569 68.2476 22.995C68.1068 20.1265 69.395 18.0351 71.7837 16.6582C74.0211 15.37 76.342 15.5838 78.5898 16.7677C78.9341 16.9503 79.2783 17.1276 79.6225 17.3101C80.9577 18.009 81.547 17.816 82.152 16.4496C83.6801 12.9813 86.3452 10.916 90.0325 10.2119C94.1162 9.42959 98.4398 11.3958 100.531 15.0623C101.334 16.4652 102.377 17.211 103.937 17.1902C107.619 17.1328 110.613 20.7471 110.524 24.3093C110.472 26.4945 110.514 26.4684 112.563 27.2821C114.211 27.934 115.291 29.1231 115.421 30.9433C115.552 32.7791 114.837 34.2499 113.132 35.1052C112.553 35.3973 111.937 35.6111 111.332 35.8563C110.858 35.5955 111.035 35.2043 111.119 34.8288C112.021 30.7347 109.945 28.007 105.752 27.8453C104.02 27.7775 102.284 27.788 100.552 27.7827C93.965 27.7514 87.3727 27.5793 80.7856 27.8923C79.4191 27.9601 78.2143 28.5859 77.0044 29.1805C76.5245 29.4204 76.3368 29.8428 76.2064 30.307C75.6588 32.2263 75.4554 34.1352 76.4307 35.9919C76.7749 36.649 76.6497 37.1705 76.1542 37.7495C74.0576 40.2007 73.9533 41.5985 75.617 44.2896C76.2116 45.2493 76.5975 46.2611 76.2585 47.372C75.5127 49.7815 75.205 52.2745 74.7408 54.7362L74.7513 54.731Z" fill="white"/>
<path d="M94.0381 72.0722C89.6467 72.1035 85.756 71.9626 81.8913 71.2951C80.8482 71.1177 79.899 70.737 78.9707 70.2624C78.0841 69.8139 77.1557 69.2141 77.3122 68.1658C77.4686 67.1175 78.3448 66.403 79.414 66.0848C83.0074 65.0052 86.6739 64.4941 90.429 64.4889C96.1504 64.4785 101.887 64.2542 107.473 65.8814C108.339 66.1318 109.236 66.2987 109.716 67.2427C110.289 68.3692 109.977 69.4749 108.886 70.1007C106.91 71.2429 104.719 71.5037 102.518 71.7071C99.5404 71.9835 96.5519 72.1608 94.0381 72.0669V72.0722Z" fill="#0B0A09"/>
<path d="M106.586 77.199C106.586 76.5262 106.613 75.9995 106.581 75.4831C106.529 74.633 106.858 74.1323 107.744 74.1323C108.626 74.1323 109.132 74.5913 109.184 75.4727C109.288 77.2929 109.382 79.1079 109.45 80.928C109.679 87.2492 110.545 93.4034 113.507 99.1456C115.343 102.697 117.502 106.02 119.865 109.217C122.212 112.393 124.475 115.611 125.665 119.428C125.962 120.372 126.181 121.353 126.311 122.333C126.4 122.985 126.254 123.716 125.435 123.856C124.632 123.992 123.938 123.716 123.777 122.798C122.78 116.998 118.911 112.789 115.766 108.158C111.812 102.337 108.36 96.3084 107.567 89.0746C107.129 85.0639 106.811 81.0584 106.581 77.1938L106.586 77.199Z" fill="#0A0A09"/>
<path d="M93.2244 43.2831C96.4006 43.2831 100.177 43.4917 103.942 43.0797C104.766 42.991 105.522 43.1006 105.58 44.2271C105.637 45.2702 105.126 45.7552 104.161 45.8595C103.515 45.9273 102.868 45.9899 102.216 45.9899C96.3589 46.0003 90.5072 45.9899 84.6502 45.9951C83.7323 45.9951 82.8353 45.9117 81.9695 45.5727C81.3019 45.3119 80.8273 44.9416 80.9421 44.1436C81.0725 43.2309 81.7452 43.0849 82.4806 43.1371C85.8602 43.3665 89.2503 43.1996 93.2244 43.2831Z" fill="#0E0B0A"/>
<path d="M60.7635 122.521C60.8887 119.084 62.3855 116.153 64.2527 113.399C66.052 110.745 67.9765 108.168 69.854 105.566C70.0574 105.289 70.2713 104.992 70.5477 104.799C70.9806 104.502 71.476 104.304 72.008 104.622C72.5661 104.956 72.5191 105.503 72.4357 106.014C72.3366 106.625 71.9872 107.136 71.6377 107.636C69.8749 110.155 68.0547 112.633 66.3597 115.199C65.0402 117.191 63.9502 119.308 63.559 121.723C63.4808 122.219 63.1731 122.678 62.9592 123.152C62.7037 123.71 62.3021 124.128 61.6449 123.929C60.993 123.731 60.7009 123.204 60.7687 122.521H60.7635Z" fill="#0B0A0A"/>
<path d="M80.5352 76.9277C79.9771 81.5695 80.0814 86.279 79.2313 90.8947C79.0749 91.7552 78.8245 92.5845 78.3082 93.299C78.0526 93.6537 77.7136 93.9718 77.2182 93.8466C76.7071 93.7162 76.3889 93.3459 76.3472 92.8296C76.3107 92.3602 76.2898 91.8648 76.3889 91.4058C77.0565 88.3861 77.166 85.2985 77.3642 82.2318C77.505 80.0257 77.7032 77.8248 77.9066 75.6239C77.9901 74.7424 78.2613 74.0592 79.2939 74.1375C80.2692 74.2105 80.6186 74.8259 80.5456 75.7542C80.5143 76.1402 80.5456 76.5366 80.5456 76.9277H80.5352Z" fill="#0B0A09"/>
<path d="M113.033 129.343C113.043 128.404 113.878 127.878 114.889 128.164C115.943 128.462 116.642 129.275 117.388 129.974C118.817 131.315 120 132.853 120.762 134.684C120.934 135.096 120.976 135.456 120.585 135.716C120.22 135.961 119.854 135.883 119.515 135.607C117.633 134.079 115.745 132.566 113.867 131.033C113.34 130.605 113.027 130.042 113.033 129.338V129.343Z" fill="#0C0A09"/>
<path d="M76.6863 130.162C76.6863 130.97 76.3994 131.544 75.8622 131.956C74.2924 133.166 72.7069 134.355 71.1109 135.529C70.6416 135.873 70.1044 136.118 69.5932 135.617C69.1134 135.148 69.4055 134.642 69.6663 134.199C70.7563 132.321 72.0549 130.616 73.823 129.317C74.4749 128.837 75.2311 128.608 76.0135 128.962C76.5454 129.202 76.6602 129.734 76.681 130.157L76.6863 130.162Z" fill="#0D0B09"/>
<path d="M45.2581 161.736C45.4875 162.753 45.1798 163.588 45.0599 164.417C44.6479 167.249 44.9243 170.039 45.4667 172.819C45.837 174.712 45.8578 174.691 44.1107 175.583C42.2383 176.538 40.2043 176.642 38.1755 176.793C37.5757 176.84 36.6734 176.772 36.6213 177.393C36.5535 178.17 37.4975 178.233 38.1025 178.311C39.954 178.546 41.8159 178.681 43.6778 178.373C44.6531 178.212 45.4302 178.42 46.0091 179.354C46.5828 180.282 46.369 181.065 45.8735 181.894C44.9347 183.474 43.4848 184.376 41.8002 184.919C38.7231 185.915 35.5626 186.4 32.3238 186.181C30.6548 186.066 29.2466 185.414 28.287 183.923C27.8541 183.25 27.9376 183.041 28.6886 182.754C30.4566 182.087 31.9848 181.018 33.2104 179.568C33.5233 179.198 34.0344 178.666 33.6276 178.212C33.2365 177.774 32.6419 178.144 32.209 178.431C30.3002 179.693 28.287 180.637 25.9557 180.747C18.5185 181.091 13.1466 174.441 15.1232 167.244C15.7647 164.907 14.6225 163.197 13.4386 161.491C11.3733 158.508 9.52183 155.436 8.9377 151.785C8.57262 149.501 8.45266 147.211 9.1724 144.958C9.53748 143.811 10.2363 142.872 11.1438 142.105C12.3903 141.052 13.6316 141.24 14.5391 142.596C14.9459 143.206 15.3371 143.837 15.6813 144.489C16.7661 146.533 17.0842 148.406 15.6083 150.612C12.9953 154.523 13.6368 162.68 18.7114 166.044C21.4861 167.885 23.9112 167.885 26.5033 165.783C27.0249 165.361 27.5568 165.257 28.1983 165.408C29.6691 165.757 31.0721 165.549 32.2612 164.594C33.1634 163.869 33.8675 164.558 34.5247 164.871C35.2705 165.225 34.6133 165.898 34.4517 166.331C33.6798 168.417 33.5807 170.467 34.4725 172.537C34.6603 172.97 34.7124 173.528 35.38 173.419C36.0006 173.32 35.8546 172.772 35.9016 172.376C36.0163 171.385 36.0163 170.378 36.1936 169.403C36.6369 166.999 37.7322 165.178 40.319 164.438C42.0923 163.932 43.7508 163.05 45.2528 161.726L45.2581 161.736Z" fill="#F04E23"/>
<path d="M148.649 168.407C149.197 169.361 149.259 170.336 149.311 171.317C149.337 171.791 149.259 172.334 149.953 172.386C150.547 172.428 150.62 171.958 150.73 171.531C151.304 169.372 151.335 167.259 150.333 165.189C150.156 164.824 149.478 164.37 150.078 163.979C150.719 163.562 151.444 162.758 152.289 163.29C153.765 164.224 155.236 164.432 156.853 163.801C157.364 163.603 157.724 163.88 158.125 164.208C160.488 166.148 163.648 166.075 165.959 164.067C171.07 159.634 171.592 151.962 167.096 146.82C166.72 146.387 166.475 146.001 166.658 145.433C167.112 143.988 167.445 142.502 168.113 141.125C169.271 138.746 171.279 138.47 173.031 140.483C174.085 141.693 174.674 143.127 174.836 144.723C175.321 149.501 174.434 153.955 171.675 157.96C171.263 158.56 170.945 159.233 170.569 159.859C169.417 161.773 169.255 163.619 169.98 165.877C171.289 169.956 170.022 173.679 166.861 176.475C163.476 179.469 159.507 179.938 155.325 178.128C154.568 177.8 153.849 177.398 153.108 177.038C152.753 176.866 152.315 176.668 152.034 177.023C151.752 177.377 152.013 177.768 152.289 178.066C153.536 179.411 154.86 180.637 156.696 181.148C157.166 181.278 157.849 181.211 157.917 181.894C157.974 182.478 157.646 183.005 157.192 183.359C156.013 184.277 154.725 184.955 153.197 185.107C149.708 185.446 146.432 184.168 143.037 183.813C142.573 183.766 142.453 183.469 142.771 183.083C144.012 181.581 144.998 179.907 146.083 178.295C146.568 177.575 147.548 177.419 148.357 177.101C148.67 176.976 149.108 176.897 149.004 176.444C148.931 176.12 148.56 176.037 148.253 176.073C147.001 176.214 147.178 175.552 147.434 174.738C148.075 172.709 148.555 170.644 148.659 168.401L148.649 168.407Z" fill="#F04E23"/>
<path d="M48.3298 173.372C51.4591 174.034 54.4058 174.196 57.3317 173.773C62.2759 173.059 66.5213 170.816 70.073 167.338C73.8959 163.593 77.9014 160.125 82.8404 157.898C83.508 157.595 84.1599 157.23 84.8588 157.037C87.4352 156.338 87.1536 156.338 88.2489 158.591C88.7913 159.702 89.0781 160.938 89.5266 162.096C89.777 162.738 89.5997 163.077 88.9529 163.196C83.9461 164.12 79.8937 166.764 76.5454 170.441C71.137 176.376 64.2213 178.952 56.4972 179.928C55.2038 180.089 53.9051 180.136 52.6117 180.261C52.0484 180.319 51.7251 180.209 51.4435 179.724C50.2961 177.742 49.133 175.766 48.3298 173.367V173.372Z" fill="white"/>
<path d="M105.016 175.489C107.452 175.458 109.815 175.734 112.182 175.275C117.784 174.18 122.379 171.406 125.998 167.04C129.899 162.341 134.124 158.054 139.777 155.467C141.723 154.575 141.827 154.627 142.933 156.463C143.626 157.611 144.179 158.821 144.649 160.078C144.862 160.657 144.93 160.964 144.174 161.194C139.178 162.722 135.459 165.95 132.319 170.029C127.333 176.501 120.444 179.599 112.626 181.299C109.413 181.998 107.655 181.07 106.372 178.316C105.945 177.393 105.23 176.605 105.011 175.494L105.016 175.489Z" fill="white"/>
<path d="M132.909 210.308C132.095 209.301 132.434 208.065 132.293 206.938C132.038 204.883 131.714 202.818 131.933 200.727C136.565 198.677 140.502 195.856 142.714 191.099C143.298 189.842 143.658 188.507 143.872 187.146C143.986 186.416 144.242 186.243 144.993 186.389C147.236 186.833 149.499 187.193 151.757 187.558C152.759 187.719 153.056 188.1 152.811 189.206C150.886 197.764 146.026 204.07 138.317 208.159C136.617 209.061 134.719 209.598 132.909 210.308Z" fill="white"/>
<path d="M55.402 200.529C55.1934 203.554 54.8753 206.558 53.9208 209.458C47.4433 208.185 42.1287 205.092 38.4101 199.522C36.6473 196.888 35.0148 194.181 34.0708 191.125C33.5232 189.357 33.5389 189.373 35.2235 188.883C37.2262 188.304 39.2915 188.053 41.3464 187.761C41.8471 187.688 42.3478 187.563 42.5251 188.356C43.9906 195.099 48.6376 198.578 54.9222 200.357C55.0891 200.403 55.2456 200.471 55.4072 200.529H55.402Z" fill="white"/>
<path d="M139.381 151.926C137.373 152.828 135.496 153.678 133.754 154.815C129.331 157.694 125.372 161.1 121.951 165.111C117.784 169.998 112.381 171.661 106.18 171.359C103.593 171.234 103.593 171.244 103.259 168.589C103.014 166.644 103.014 166.634 104.954 166.644C106.993 166.654 109.048 166.884 111.056 166.514C113.836 166.002 115.76 164.073 117.617 162.138C121.362 158.231 125.023 154.242 129.399 150.998C130.583 150.116 131.866 149.407 133.117 148.64C133.576 148.359 134.077 148.202 134.588 148.505C136.252 149.485 137.895 150.497 139.381 151.926Z" fill="white"/>
<path d="M85.1093 153.438C77.6512 155.749 71.7108 160.026 66.2189 165.069C61.6293 169.283 56.101 170.482 50.0615 169.648C47.2764 169.262 47.2816 169.2 47.4433 166.315C47.5528 164.365 47.5476 164.37 49.4513 164.746C51.7252 165.194 54.0252 165.246 56.3148 165.048C58.401 164.865 59.9239 163.468 61.4676 162.221C65.3114 159.123 68.8632 155.665 73.0094 152.948C74.8192 151.759 76.6759 150.653 78.6265 149.72C79.4662 149.318 80.2745 149.303 81.0777 149.881C82.4859 150.888 83.7272 152.067 85.1093 153.444V153.438Z" fill="white"/>
<path d="M149.327 142.648C149.207 145.474 148.8 147.9 148.174 150.294C148.034 150.841 147.814 151.107 147.168 150.784C145.509 149.96 143.72 149.683 141.879 149.725C141.342 149.735 140.909 149.673 140.993 148.974C141.598 143.978 140.659 139.033 140.497 134.068C140.461 132.91 140.529 131.706 141.827 131.236C143.105 130.772 144.195 131.278 145.097 132.248C147.914 135.278 149.181 138.913 149.322 142.653L149.327 142.648Z" fill="#CF6341"/>
<path d="M34.2012 142.71C34.3368 139.132 35.0461 135.956 37.2992 133.307C38.1388 132.321 39.0359 131.054 40.4962 131.57C41.9461 132.081 42.3425 133.599 42.3894 135.007C42.4416 136.561 42.3164 138.131 42.1443 139.68C41.7949 142.82 42.1808 145.912 42.7076 148.99C42.8693 149.928 42.7493 150.194 41.774 150.21C40.0164 150.236 38.384 150.872 36.7933 151.561C36.2248 151.806 35.9275 151.926 35.6511 151.17C34.6236 148.364 34.1595 145.474 34.2012 142.71Z" fill="#F04E23"/>
<path d="M55.7827 187.568C55.7827 190.296 55.7827 193.018 55.7879 195.746C55.7879 196.403 55.7619 197.045 55.3863 197.618C52.2727 196.549 49.519 194.938 47.2555 192.486C45.8838 191 45.1797 189.227 44.5174 187.386C44.2931 186.76 44.6947 186.483 45.065 186.223C46.7339 185.044 48.0169 183.589 48.5958 181.581C48.7419 181.085 49.0391 180.741 49.4407 181.383C51.0471 183.964 53.3158 185.863 55.7775 187.568H55.7827Z" fill="#F9F3E3"/>
<path d="M36.5169 162.493C35.4947 162.482 34.7176 162.477 34.0343 161.997C32.3497 160.808 32.0681 159.123 33.4293 157.538C35.5207 155.107 38.2067 153.6 41.2942 152.813C43.6308 152.218 45.597 153.219 47.5058 154.398C48.0639 154.742 48.0326 155.076 47.8083 155.666C46.807 158.278 45.0024 159.932 42.3008 160.688C40.2824 161.251 38.5092 162.628 36.5169 162.493Z" fill="#F04E23"/>
<path d="M153.061 149.146C151.377 149.605 150.845 151.123 149.666 151.91C150.725 149.647 151.095 147.211 151.684 144.838C151.836 144.228 152.159 144.004 152.738 143.894C154.975 143.466 157.223 144.687 158.271 146.851C159.653 149.709 159.075 152.62 158.584 155.53C158.329 157.032 157.87 158.477 157.129 159.822C156.79 160.443 156.368 160.996 155.778 161.387C155.231 161.752 154.621 162.018 153.979 161.548C153.28 161.043 153.864 160.552 154.026 160.072C154.725 158.038 154.396 156.14 152.879 154.669C151.731 153.564 151.825 152.531 152.404 151.3C152.696 150.685 152.988 150.059 153.066 149.146H153.061Z" fill="#F04E23"/>
<path d="M34.1335 152.943C33.3511 152.202 32.5793 151.451 31.7761 150.732C31.5309 150.513 31.1763 150.267 30.8529 150.575C30.5817 150.831 30.806 151.138 30.9364 151.404C31.0303 151.597 31.1085 151.806 31.218 151.988C32.089 153.47 32.5323 154.727 30.9833 156.291C29.5282 157.762 29.7681 159.806 30.613 161.663C30.7851 162.044 31.2545 162.362 30.7069 162.753C30.2532 163.077 29.789 163.384 29.1579 163.061C28.3391 162.644 27.8176 161.945 27.3795 161.209C25.4237 157.955 24.6101 154.367 24.8187 150.627C25.0064 147.242 27.4055 145.031 30.2636 145.141C31.145 145.177 31.6926 145.438 31.9065 146.403C32.3967 148.645 33.4033 150.711 34.1335 152.938V152.943Z" fill="#F04E23"/>
<path d="M167.544 154.685C167.044 157.924 166.335 161.251 162.725 162.941C161.995 163.28 161.265 163.426 160.493 162.977C159.148 162.195 159.043 161.919 159.773 160.526C160.811 158.56 160.848 156.359 161.302 154.257C161.766 152.108 161.781 149.965 161.14 147.842C160.895 147.034 161.203 146.815 162.027 146.794C163.466 146.763 164.566 147.342 165.385 148.432C166.715 150.205 167.362 152.255 167.55 154.685H167.544Z" fill="#F04E23"/>
<path d="M22.3622 151.702C22.4508 155.639 23.3322 159.379 25.215 162.858C25.6166 163.603 24.4327 164.959 23.2644 165.064C21.7311 165.199 20.5993 164.328 19.6397 163.358C16.3175 160.01 15.8429 154.346 18.4558 150.419C18.7479 149.975 19.1182 149.589 19.5823 149.365C20.3699 148.984 21.2878 148.656 22.0753 149.037C22.842 149.402 22.2839 150.278 22.3569 150.925C22.3882 151.18 22.3569 151.446 22.3569 151.702H22.3622Z" fill="#F04E23"/>
<path d="M131.793 197.78C131.386 197.274 131.37 196.674 131.344 196.064C131.261 194.254 131.162 192.445 131.068 190.635C133.159 189.727 135.339 189.013 137.253 187.73C138.114 187.151 138.974 186.567 139.788 185.931C140.278 185.55 140.69 185.539 141.207 185.837C141.77 186.165 141.785 186.588 141.634 187.156C140.518 191.36 138.004 194.458 134.234 196.56C133.441 197.003 132.606 197.373 131.793 197.775V197.78Z" fill="#F9F2E2"/>
<path d="M143.71 152.494C146.589 153.464 149.379 154.544 151.309 157.047C152.049 158.007 152.081 159.05 151.398 160.057C150.673 161.121 149.556 161.428 148.346 161.444C147.992 161.444 147.846 161.131 147.757 160.839C146.844 157.861 145.483 155.107 143.715 152.494H143.71Z" fill="#F04E23"/>
<path d="M84.9267 235.498C84.9267 250.216 84.9319 264.934 84.9267 279.652C84.9267 280.075 84.7494 280.502 84.7337 280.925C84.6972 281.811 84.28 282.082 83.4038 282.072C79.6695 282.03 75.9353 282.025 72.2062 282.072C71.2883 282.082 71.0119 281.707 70.8919 280.899C70.6937 279.558 70.7459 278.213 70.7407 276.872C70.7355 272.444 70.7146 268.016 70.7511 263.589C70.7615 262.337 70.5738 261.508 69.0769 261.236C67.408 260.934 66.7196 260.021 66.7926 258.853C66.876 257.445 67.7209 256.569 69.4525 256.349C70.386 256.23 70.6781 255.864 70.6729 254.947C70.6572 250.346 70.6989 245.746 70.7198 241.141C70.7407 239.54 70.772 237.939 70.7772 236.343C70.7772 235.795 70.8815 235.441 71.5543 235.436C76.0135 235.399 80.4727 235.269 84.9319 235.503L84.9267 235.498Z" fill="white"/>
<path d="M117.591 235.425C117.669 241.846 117.424 248.271 117.773 254.686C117.831 255.776 118.112 256.329 119.302 256.423C120.678 256.527 121.742 257.685 121.758 258.832C121.774 260.011 120.929 261.028 119.458 261.231C118.139 261.419 117.779 262.081 117.721 263.312C117.455 268.95 117.622 274.593 117.612 280.231C117.612 281.405 117.45 281.947 116.016 281.984C112.24 282.083 108.469 281.968 104.698 282.051C104.14 282.062 103.911 281.858 103.864 281.332C103.817 280.815 103.739 280.299 103.671 279.788C103.285 278.567 103.321 277.316 103.321 276.059C103.327 263.083 103.321 250.112 103.332 237.136C103.332 236.505 103.155 235.816 103.718 235.295C108.339 235.337 112.965 235.378 117.586 235.42L117.591 235.425Z" fill="white"/>
<path d="M97.9548 212.013C105.314 212.133 111.301 207.111 113.278 200.789C113.497 200.091 113.455 199.538 112.683 199.037C111.478 198.255 110.8 197.008 110.576 195.584C110.456 194.802 110.488 193.931 111.51 193.738C112.433 193.566 113.08 193.905 113.246 194.959C113.429 196.116 113.867 197.019 115.333 196.894C116.689 196.779 117.507 196.252 117.617 194.781C117.664 194.14 118.097 193.728 118.853 193.702C119.677 193.676 119.891 194.202 120.037 194.818C120.376 196.289 118.994 198.782 117.403 199.355C116.532 199.668 116.063 200.122 115.828 201.029C114.347 206.761 110.91 210.892 105.449 213.213C100.724 215.221 95.9834 215.247 91.2216 213.134C87.9829 211.695 85.4586 209.478 83.4559 206.631C82.2511 204.915 81.5366 202.954 81.015 200.936C80.796 200.096 80.4778 199.501 79.6329 199.074C78.1883 198.343 77.479 196.982 77.1817 195.428C77.0252 194.62 77.2599 193.926 78.1778 193.749C79.0384 193.582 79.7059 193.764 79.852 194.823C80.0241 196.08 80.7125 196.899 82.0633 196.925C83.4663 196.951 84.0452 196.096 84.2277 194.828C84.3633 193.905 84.9996 193.686 85.8445 193.717C86.8146 193.754 86.752 194.421 86.799 195.089C86.945 197.17 85.6776 198.411 84.1286 199.355C83.4767 199.752 83.4193 199.992 83.6332 200.643C85.5994 206.719 89.6779 210.475 95.9103 211.851C96.7031 212.029 97.548 211.987 97.9652 212.018L97.9548 212.013Z" fill="#0B0A09"/>
<path d="M103.723 235.3C103.697 248.787 103.666 262.28 103.64 275.767C103.64 277.107 103.666 278.453 103.676 279.793C102.977 278.74 102.93 277.556 102.93 276.335C102.946 263.224 102.941 250.112 102.941 236.995C102.941 236.651 102.93 236.302 102.857 235.968C102.8 235.702 102.571 235.519 102.278 235.54C101.939 235.561 101.893 235.837 101.882 236.109C101.872 236.5 101.872 236.891 101.872 237.282C101.872 250.18 101.872 263.072 101.872 275.97C101.872 277.264 101.746 278.541 101.387 279.788C101.001 278.74 101.131 277.639 101.126 276.57C101.1 263.088 101.11 249.611 101.11 236.129C101.11 235.916 101.131 235.697 101.147 235.483C101.981 235.112 102.847 235.159 103.718 235.3H103.723Z" fill="#626263"/>
<path d="M97.7671 195.527C96.4111 195.391 94.8308 195.073 93.5843 193.827C93.0262 193.269 92.8124 192.565 93.1253 191.944C93.4435 191.308 94.2102 191.683 94.7786 191.688C95.0185 191.688 95.2637 191.845 95.4931 191.965C96.9378 192.706 98.4347 192.836 99.9941 192.372C100.323 192.273 100.677 192.132 100.995 192.179C101.564 192.257 102.456 191.756 102.623 192.664C102.79 193.576 102.503 194.51 101.475 194.88C100.38 195.272 99.2431 195.537 97.7671 195.537V195.527Z" fill="#0D0B09"/>
<path d="M135.23 301.849C135.23 302.616 135.193 303.419 134.197 303.502C133.263 303.581 132.768 303.023 132.648 302.115C132.366 299.899 131.078 298.553 129.002 297.865C128.246 297.614 127.448 297.291 127.751 296.243C128.048 295.215 128.929 295.377 129.696 295.45C132.721 295.731 135.245 298.668 135.224 301.844L135.23 301.849Z" fill="#FCFCFC"/>
<path d="M60.0542 294.652C61.0295 294.558 61.3842 295.189 61.4676 295.982C61.5511 296.795 61.186 297.254 60.2785 297.306C57.9681 297.432 56.612 298.793 55.8923 300.89C55.6263 301.667 55.3603 302.475 54.3172 302.162C53.3107 301.854 53.1333 301.156 53.3941 300.112C54.2755 296.602 57.2275 294.96 60.0542 294.652Z" fill="#FBFBFB"/>
<path d="M105.7 68.1503C97.7358 70.0331 89.7509 70.1531 81.7609 68.166C89.7249 66.8569 97.6993 66.9299 105.7 68.1503Z" fill="#CD6341"/>
</svg>
